<?xml version="1.0" encoding="utf-8"?>
<!-- Generator: Adobe Illustrator 23.0.0, SVG Export Plug-In . SVG Version: 6.00 Build 0)  -->
<svg version="1.1" id="Layer_1" xmlns="http://www.w3.org/2000/svg" xmlns:xlink="http://www.w3.org/1999/xlink" x="0px" y="0px"
	 viewBox="0 0 1024 1024" style="enable-background:new 0 0 1024 1024;" xml:space="preserve">
<style type="text/css">
	.st0{fill:#1DAD4B;}
	.st1{fill:#FFFFFF;}
	.st2{fill:#0B3238;}
	.st3{fill:none;stroke:#000000;stroke-width:0.5;stroke-miterlimit:10;}
	.st4{opacity:0.97;}
	.st5{fill:#0C8744;}
	.st6{opacity:0.97;fill:#0C8744;}
	.st7{fill:#2DB34B;}
	.st8{fill:#8D8E8E;}
</style>
<g>
	<path class="st0" d="M212.9,751.5c36.5-31,72.1-56.5,105.8-66.6c15.4-47.9,40.2-91.8,84-127.7c15.7-12.5,34.6-24.4,63.4-9.4
		c9.8,4.9,19.4,7.6,28.6,8c5,0.2,9.8-2.4,12.6-6.5c9.9-14.2,19.5-28.2,28.2-41.5c17.3-26.7,28-57.1,31.3-88.7
		c4.8-45.9,11.7-90.5,26-130.2c-17.7-8.4-34.5-19.7-50.6-33.4c-3.6-3-4.2-8.4-1.4-12.2l36.5-50.6c10.2-14.2,9.9-33.8-1.6-46.9
		C544.3,110.4,467.1,94.5,397.4,91C166.7,79.7-2.6,316.7,28.3,517.8c20.8,97,61.3,185.8,159.9,236.5
		C196.2,758.5,206,757.3,212.9,751.5z"/>
	<path class="st0" d="M422.4,72.4c99.2,8,170.4,39.9,225.7,103.5c29.5,33.9-6.1,110.6-38.6,109.9c6.4,58.4-2,109.5-23.2,154.4
		c-1.1,2.3,1.8,4.3,3.6,2.6c41-38.8,82.3-73.7,126.3-72.7c36.4,11.9,32,48.7,3.2,100.3c-61.3,93.2-128.3,173.7-230.2,174.9
		c-4.9,35.6,22.6,42,88.2,14.1c107.7-51.2,233.3-249,232.6-251.4c-21.2,0.5-39.7-5.7-53.4-23.8c-14.9-21.1-12.1-47.6,10.1-79.1
		c31.5-44.5,60-84.7,95.3-86.2c10.7-1,20.7,2.3,30.2,8.8c13.1,8.9,19.4,25.3,15.2,40.5c-3.2,11.7-9.3,21.8-16.7,31.3
		c-0.7,0.8-2.1,0.3-2-0.7c1.9-30.1-26.2-39.5-49.1-33.7c-12.1,3-30.3,13.3-36.3,24.3c-8.6,15.9,9.9,42.1,49.2,47.9
		c19.5,2.9,39.4-1.7,56.5-11.6l43.8-25.5C872.8,126.5,697.2,6,493.3,6C365.7,6,249.1,53.2,160.1,131.2
		C255.1,77.4,363.2,67.6,422.4,72.4z"/>
	<path class="st0" d="M529.2,554.8c56.6-7.3,108.3-30.7,153-76.7c24.7-26.5,12.4-39.4-8.4-42.8c-24.1-3.9-44.3,5.8-63.8,20.5
		c-26.7,20.2-55.3,54-84.7,92.3C523.1,551.1,525.5,555.3,529.2,554.8z"/>
	<path class="st0" d="M965.2,328.8c-1.8,1.5-3.7,2.9-5.6,4.2c-109.4,72.3-145.4,135.2-213.8,224.1c-54.3,70.5-106,131.5-172.3,159.4
		c-34.7,14.6-62.1,14.1-83.5,5.4c-14.4-5.9-24.9-18.5-27.2-33.9c-2-13.4-0.7-28.6,2.7-44.8c0,0-23.8-4.8-31-8.4
		c-20.9-10.5-35.9-23.5-50.7-12.9c-31.4,23.1-37.3,44.2,3.9,61.7c15.5,5.4,21.7,19.2,16.1,40.5c-8.8,33.7-30.8,56.9-52.7,48.2
		c-20.5-8.1-45-12-73.9-8.4c-19.8,3.5-39.4,15.5-55.9,31.5c-54.9,53.1-56.9,95.6-15.3,132.8c81.6,56.5,180.7,89.6,287.5,89.6
		c279.5,0,506-226.6,506-506C999.4,447.4,987.3,385.6,965.2,328.8z M552.1,918.7c4.9,7.4,6.2,16.4,4.4,25
		c-7.4,35-38.6,64.1-60.3,73.5c-3.4,1.5-7.3,0.9-10.4-1.2c-23.7-16.2-37.9-22.1-54.2-34.5c-2.4-1.9-3-5.3-1.1-7.7
		c19.4-25.5,41.9-56.5,58.6-81.7c-1.1-0.3-2.3-0.8-3.3-1.5c-23.7-16.2-37.9-22.1-54.2-34.5c-2.4-1.9-3-5.3-1.1-7.7
		c21.1-27.8,46.1-62.1,62.9-88.4c1.9-2.9,5.6-4.2,8.8-2.8c23.6,10.1,41.2,22.9,49.9,36c4.9,7.4,6.2,16.4,4.4,25
		c-6.2,29-28.6,53.9-48.5,67C528.7,895,544.2,906.7,552.1,918.7z"/>
</g>
</svg>
