<?xml version="1.0" encoding="UTF-8"?>
<svg width="1191px" height="770px" viewBox="0 0 1191 770" version="1.1" xmlns="http://www.w3.org/2000/svg" xmlns:xlink="http://www.w3.org/1999/xlink">
    <title>custom-app</title>
    <defs>
        <linearGradient x1="17.6072874%" y1="94.1832616%" x2="84.7482519%" y2="2.64311098%" id="linearGradient-1">
            <stop stop-color="#4BFDF1" offset="0.4632538%"></stop>
            <stop stop-color="#18069A" offset="100%"></stop>
        </linearGradient>
        <linearGradient x1="50.0260852%" y1="-8.88526382%" x2="50.0260852%" y2="75.2105019%" id="linearGradient-2">
            <stop stop-color="#FFFFFF" offset="0%"></stop>
            <stop stop-color="#FFFFFF" stop-opacity="0" offset="100%"></stop>
        </linearGradient>
        <linearGradient x1="17.6072874%" y1="94.1832616%" x2="84.7482519%" y2="2.64311098%" id="linearGradient-3">
            <stop stop-color="#51C2F4" offset="0.1236652%"></stop>
            <stop stop-color="#18069A" offset="100%"></stop>
        </linearGradient>
        <linearGradient x1="84.6832603%" y1="25.9565671%" x2="15.3840266%" y2="74.0201378%" id="linearGradient-4">
            <stop stop-color="#4FB1FF" offset="0.6045854%"></stop>
            <stop stop-color="#427CFF" offset="100%"></stop>
        </linearGradient>
    </defs>
    <g id="Page-1" stroke="none" stroke-width="1" fill="none" fill-rule="evenodd">
        <g id="Group" transform="translate(1.000000, 1.000000)">
            <g id="img2-step1.449962e">
                <line x1="1056.4" y1="143.8" x2="1056.4" y2="143.1" id="Path"></line>
                <g id="Group" opacity="0.2" transform="translate(0.000000, 81.000000)" stroke="#8888BA">
                    <polygon id="Path" points="516.5 331.4 573.8 298.3 652.1 310.4 673.1 355.6 615.8 388.7 537.4 376.6"></polygon>
                    <polygon id="Path" points="464.8 323.4 559.9 268.4 690 288.5 724.8 363.6 629.6 418.5 499.6 398.4"></polygon>
                    <polygon id="Path" points="379 310.1 537 218.9 752.8 252.3 810.6 376.9 652.6 468.1 436.8 434.7"></polygon>
                    <polygon id="Path" points="236.5 288.1 498.8 136.6 857 192.1 953 398.9 690.8 550.3 332.5 494.9"></polygon>
                    <polygon id="Path" points="0.1 251.5 435.4 0.1 1030.1 92.1 1189.5 435.5 754.1 686.8 159.4 594.8"></polygon>
                </g>
                <polygon id="Path" stroke="#C9C9DC" stroke-width="1.5" opacity="0.5" points="791.3 507.4 808.4 514.8 788.7 519.7"></polygon>
                <polygon id="Path" stroke="#C9C9DC" stroke-width="1.5" opacity="0.5" points="587.2 26.8 600.9 13.6 596.3 0.5 582.6 13.7"></polygon>
                <path d="M777.4,293 C780.1,291.5 782.2,287.7 782.2,284.7 C782.2,281.7 780,280.4 777.4,281.9" id="Path" stroke="#C9C9DC" stroke-width="1.5" opacity="0.5"></path>
                <path d="M243.7,585.7 C240.1,585.2 237.9,583 238.8,580.9 C239.7,578.8 243.4,577.5 247.1,578.1 C250.7,578.6 254.4,577.4 255.4,575.3 C256.3,573.2 254.2,571.1 250.5,570.5" id="Path" stroke="#C9C9DC" stroke-width="1.5" opacity="0.5"></path>
                <ellipse id="Oval" fill="#FFCD2D" fill-rule="nonzero" transform="translate(261.122600, 236.757500) rotate(-59.999272) translate(-261.122600, -236.757500) " cx="261.1226" cy="236.7575" rx="9.99978" ry="5.7998724"></ellipse>
                <ellipse id="Oval" fill="#73DF15" fill-rule="nonzero" cx="726" cy="371" rx="8" ry="4.6"></ellipse>
                <ellipse id="Oval" fill="#6A7AFF" fill-rule="nonzero" cx="472.4" cy="653" rx="5.2" ry="3"></ellipse>
                <ellipse id="Oval" stroke="#C9C9DC" stroke-width="1.499967" opacity="0.5" transform="translate(813.123000, 36.982700) rotate(-59.999272) translate(-813.123000, -36.982700) " cx="813.123" cy="36.9827" rx="10.1997756" ry="5.8998702"></ellipse>
            </g>
            <g id="img2-step2.ea0704b" transform="translate(314.000000, 17.000000)">
                <line x1="742.4" y1="126.8" x2="742.4" y2="126.1" id="Path"></line>
                <path d="M13,219.5 L389,2.4 C396.2,-1.8 402,1.6 402,9.9 L402,242 C402,250.3 396.2,260.4 389,264.6 L13,481.7 C5.8,485.9 0,482.5 0,474.2 L0,242 C0,233.7 5.8,223.6 13,219.5 Z" id="Path" fill="#C9C9DC" fill-rule="nonzero"></path>
                <path d="M16.3,221.1 L392.3,4 C399.5,-0.2 405.3,3.2 405.3,11.5 L405.3,243.6 C405.3,251.9 399.5,262 392.3,266.2 L16.3,483.3 C9.1,487.5 3.3,484.1 3.3,475.8 L3.3,243.7 C3.3,235.4 9.1,225.3 16.3,221.1 Z" id="Path" fill="#F5F5F7" fill-rule="nonzero"></path>
                <g id="Group" transform="translate(151.000000, 368.000000)" fill-rule="nonzero">
                    <path d="M0.6,124.5 L5,124.5 L5,124.6 L214.3,3.7 C215.2,3.2 216.8,3.2 217.9,3.8 L293.3,47.3 L293.3,46 L295.2,46 L295.2,49.1 L295.2,49.1 C295.2,49.5 295,49.8 294.6,50.1 L81.6,173.1 C80.7,173.6 79.1,173.6 78,173 L1.5,128.9 C0.8,128.5 0.5,128 0.6,127.5 L0.6,127.5 L0.6,124.5 Z" id="Path" fill="#B9BDC8"></path>
                    <path d="M81.6,170 L294.7,47 C295.6,46.5 295.5,45.5 294.4,44.9 L218,0.7 C216.9,0.1 215.3,0 214.4,0.6 L1.3,123.6 C0.4,124.1 0.5,125.1 1.6,125.7 L78.1,169.8 C79,170.5 80.6,170.5 81.6,170 Z" id="Path" fill="#DCDFE1"></path>
                    <g transform="translate(7.000000, 4.000000)" fill="#C9C9DC" id="Path">
                        <path d="M6,122.5 L211.8,3.7 C212.4,3.4 212.3,2.7 211.6,2.3 L208.8,0.7 C208.1,0.3 207.1,0.3 206.5,0.6 L0.8,119.4 C0.2,119.7 0.3,120.4 1,120.8 L3.8,122.4 C4.4,122.8 5.4,122.8 6,122.5 Z"></path>
                        <path d="M213.1,18 C213.7,18.3 214.7,18.3 215.3,18 L226,11.8 C226.6,11.5 226.6,10.9 226,10.5 L216.6,5.1 C216,4.8 215,4.8 214.4,5.1 L203.7,11.3 C203.1,11.6 203.1,12.2 203.7,12.6 L213.1,18 Z"></path>
                        <path d="M198.6,26.3 C199.2,26.6 200.2,26.6 200.8,26.3 L211.5,20.1 C212.1,19.8 212.1,19.2 211.5,18.8 L202.1,13.4 C201.5,13.1 200.5,13.1 199.9,13.4 L189.2,19.6 C188.6,19.9 188.6,20.5 189.2,20.9 L198.6,26.3 Z"></path>
                        <path d="M184.1,34.7 C184.7,35 185.7,35 186.3,34.7 L197,28.5 C197.6,28.2 197.6,27.6 197,27.2 L187.6,21.8 C187,21.5 186,21.5 185.4,21.8 L174.7,28 C174.1,28.3 174.1,28.9 174.7,29.3 L184.1,34.7 Z"></path>
                        <path d="M169.7,43 C170.3,43.3 171.3,43.3 171.9,43 L182.6,36.8 C183.2,36.5 183.2,35.9 182.6,35.5 L173.2,30.1 C172.6,29.8 171.6,29.8 171,30.1 L160.3,36.3 C159.7,36.6 159.7,37.2 160.3,37.6 L169.7,43 Z"></path>
                        <path d="M155.2,51.4 C155.8,51.7 156.8,51.7 157.4,51.4 L168.1,45.2 C168.7,44.9 168.7,44.3 168.1,43.9 L158.7,38.5 C158.1,38.2 157.1,38.2 156.5,38.5 L145.8,44.7 C145.2,45 145.2,45.6 145.8,46 L155.2,51.4 Z"></path>
                        <path d="M140.7,59.7 C141.3,60 142.3,60 142.9,59.7 L153.6,53.5 C154.2,53.2 154.2,52.6 153.6,52.2 L144.2,46.8 C143.6,46.5 142.6,46.5 142,46.8 L131.3,53 C130.7,53.3 130.7,53.9 131.3,54.3 L140.7,59.7 Z"></path>
                        <path d="M126.3,68.1 C126.9,68.4 127.9,68.4 128.5,68.1 L139.2,61.9 C139.8,61.6 139.8,61 139.2,60.6 L129.8,55.2 C129.2,54.9 128.2,54.9 127.6,55.2 L116.9,61.4 C116.3,61.7 116.3,62.3 116.9,62.7 L126.3,68.1 Z"></path>
                        <path d="M111.8,76.4 C112.4,76.7 113.4,76.7 114,76.4 L124.7,70.2 C125.3,69.9 125.3,69.3 124.7,68.9 L115.3,63.5 C114.7,63.2 113.7,63.2 113.1,63.5 L102.4,69.7 C101.8,70 101.8,70.6 102.4,71 L111.8,76.4 Z"></path>
                        <path d="M97.3,84.8 C97.9,85.1 98.9,85.1 99.5,84.8 L110.2,78.6 C110.8,78.3 110.8,77.7 110.2,77.3 L100.8,71.9 C100.2,71.6 99.2,71.6 98.6,71.9 L87.9,78.1 C87.3,78.4 87.3,79 87.9,79.4 L97.3,84.8 Z"></path>
                        <path d="M82.9,93.1 C83.5,93.4 84.5,93.4 85.1,93.1 L95.8,86.9 C96.4,86.6 96.4,86 95.8,85.6 L86.4,80.2 C85.8,79.9 84.8,79.9 84.2,80.2 L73.5,86.4 C72.9,86.7 72.9,87.3 73.5,87.7 L82.9,93.1 Z"></path>
                        <path d="M68.4,101.5 C69,101.8 70,101.8 70.6,101.5 L81.3,95.3 C81.9,95 81.9,94.4 81.3,94 L71.9,88.6 C71.3,88.3 70.3,88.3 69.7,88.6 L59,94.8 C58.4,95.1 58.4,95.7 59,96.1 L68.4,101.5 Z"></path>
                        <path d="M53.9,109.9 C54.5,110.2 55.5,110.2 56.1,109.9 L66.8,103.7 C67.4,103.4 67.4,102.8 66.8,102.4 L57.4,97 C56.8,96.7 55.8,96.7 55.2,97 L44.5,103.2 C43.9,103.5 43.9,104.1 44.5,104.5 L53.9,109.9 Z"></path>
                        <path d="M39.5,118.2 C40.1,118.5 41.1,118.5 41.7,118.2 L52.4,112 C53,111.7 53,111.1 52.4,110.7 L43,105.3 C42.4,105 41.4,105 40.8,105.3 L30.1,111.5 C29.5,111.8 29.5,112.4 30.1,112.8 L39.5,118.2 Z"></path>
                        <path d="M18,130.6 C18.6,130.9 19.6,130.9 20.2,130.6 L37.5,120.6 C38.1,120.3 38.1,119.7 37.5,119.3 L28.1,113.9 C27.5,113.6 26.5,113.6 25.9,113.9 L8.6,123.9 C8,124.2 8,124.8 8.6,125.2 L18,130.6 Z"></path>
                        <path d="M45,131.3 C45.6,131.6 45.6,132.2 45,132.6 L34.3,138.8 C33.7,139.1 32.7,139.1 32.1,138.8 L22.7,133.4 C22.1,133.1 22.1,132.5 22.7,132.1 L33.4,125.9 C34,125.6 35,125.6 35.6,125.9 L45,131.3 Z"></path>
                        <path d="M59.5,122.9 C60.1,123.2 60.1,123.8 59.5,124.2 L48.8,130.4 C48.2,130.7 47.2,130.7 46.6,130.4 L37.2,125 C36.6,124.7 36.6,124.1 37.2,123.7 L47.9,117.5 C48.5,117.2 49.5,117.2 50.1,117.5 L59.5,122.9 Z"></path>
                        <path d="M73.9,114.6 C74.5,114.9 74.5,115.5 73.9,115.9 L63.2,122.1 C62.6,122.4 61.6,122.4 61,122.1 L51.6,116.7 C51,116.4 51,115.8 51.6,115.4 L62.3,109.2 C62.9,108.9 63.9,108.9 64.5,109.2 L73.9,114.6 Z"></path>
                        <path d="M88.4,106.2 C89,106.5 89,107.1 88.4,107.5 L77.7,113.7 C77.1,114 76.1,114 75.5,113.7 L66.1,108.3 C65.5,108 65.5,107.4 66.1,107 L76.8,100.8 C77.4,100.5 78.4,100.5 79,100.8 L88.4,106.2 Z"></path>
                        <path d="M102.9,97.9 C103.5,98.2 103.5,98.8 102.9,99.2 L92.2,105.4 C91.6,105.7 90.6,105.7 90,105.4 L80.6,100 C80,99.7 80,99.1 80.6,98.7 L91.3,92.5 C91.9,92.2 92.9,92.2 93.5,92.5 L102.9,97.9 Z"></path>
                        <path d="M117.3,89.5 C117.9,89.8 117.9,90.4 117.3,90.8 L106.6,97 C106,97.3 105,97.3 104.4,97 L95,91.6 C94.4,91.3 94.4,90.7 95,90.3 L105.7,84.1 C106.3,83.8 107.3,83.8 107.9,84.1 L117.3,89.5 Z"></path>
                        <path d="M131.8,81.2 C132.4,81.5 132.4,82.1 131.8,82.5 L121.1,88.7 C120.5,89 119.5,89 118.9,88.7 L109.5,83.3 C108.9,83 108.9,82.4 109.5,82 L120.2,75.8 C120.8,75.5 121.8,75.5 122.4,75.8 L131.8,81.2 Z"></path>
                        <path d="M146.3,72.8 C146.9,73.1 146.9,73.7 146.3,74.1 L135.6,80.3 C135,80.6 134,80.6 133.4,80.3 L124,74.9 C123.4,74.6 123.4,74 124,73.6 L134.7,67.4 C135.3,67.1 136.3,67.1 136.9,67.4 L146.3,72.8 Z"></path>
                        <path d="M160.7,64.5 C161.3,64.8 161.3,65.4 160.7,65.8 L150,72 C149.4,72.3 148.4,72.3 147.8,72 L138.4,66.6 C137.8,66.3 137.8,65.7 138.4,65.3 L149.1,59.1 C149.7,58.8 150.7,58.8 151.3,59.1 L160.7,64.5 Z"></path>
                        <path d="M175.2,56.1 C175.8,56.4 175.8,57 175.2,57.4 L164.5,63.6 C163.9,63.9 162.9,63.9 162.3,63.6 L152.9,58.2 C152.3,57.9 152.3,57.3 152.9,56.9 L163.6,50.7 C164.2,50.4 165.2,50.4 165.8,50.7 L175.2,56.1 Z"></path>
                        <path d="M189.7,47.8 C190.3,48.1 190.3,48.7 189.7,49.1 L179,55.3 C178.4,55.6 177.4,55.6 176.8,55.3 L167.4,49.9 C166.8,49.6 166.8,49 167.4,48.6 L178.1,42.4 C178.7,42.1 179.7,42.1 180.3,42.4 L189.7,47.8 Z"></path>
                        <path d="M204.1,39.4 C204.7,39.7 204.7,40.3 204.1,40.7 L193.4,46.9 C192.8,47.2 191.8,47.2 191.2,46.9 L181.8,41.5 C181.2,41.2 181.2,40.6 181.8,40.2 L192.5,34 C193.1,33.7 194.1,33.7 194.7,34 L204.1,39.4 Z"></path>
                        <path d="M218.6,31.1 C219.2,31.4 219.2,32 218.6,32.4 L207.9,38.6 C207.3,38.9 206.3,38.9 205.7,38.6 L196.3,33.2 C195.7,32.9 195.7,32.3 196.3,31.9 L207,25.7 C207.6,25.4 208.6,25.4 209.2,25.7 L218.6,31.1 Z"></path>
                        <path d="M240.1,18.7 C240.7,19 240.7,19.6 240.1,20 L222.8,30 C222.2,30.3 221.2,30.3 220.6,30 L211.2,24.6 C210.6,24.3 210.6,23.7 211.2,23.3 L228.5,13.3 C229.1,13 230.1,13 230.7,13.3 L240.1,18.7 Z"></path>
                        <path d="M87.3,155.7 C87.9,156 87.9,156.6 87.3,157 L76.6,163.2 C76,163.5 75,163.5 74.4,163.2 L65,157.8 C64.4,157.5 64.4,156.9 65,156.5 L75.7,150.3 C76.3,150 77.3,150 77.9,150.3 L87.3,155.7 Z"></path>
                        <path d="M102,147.3 C102.6,147.6 102.6,148.2 102,148.6 L91.3,154.8 C90.7,155.1 89.7,155.1 89.1,154.8 L86,153 C85.4,152.7 85.4,152.1 86,151.7 L96.7,145.5 C97.3,145.2 98.3,145.2 98.9,145.5 L102,147.3 Z"></path>
                        <path d="M116.6,138.8 C117.2,139.1 117.2,139.7 116.6,140.1 L105.9,146.3 C105.3,146.6 104.3,146.6 103.7,146.3 L94.3,140.9 C93.7,140.6 93.7,140 94.3,139.6 L105,133.4 C105.6,133.1 106.6,133.1 107.2,133.4 L116.6,138.8 Z"></path>
                        <path d="M131.3,130.4 C131.9,130.7 131.9,131.3 131.3,131.7 L120.6,137.9 C120,138.2 119,138.2 118.4,137.9 L109,132.5 C108.4,132.2 108.4,131.6 109,131.2 L119.7,125 C120.3,124.7 121.3,124.7 121.9,125 L131.3,130.4 Z"></path>
                        <path d="M148.4,120.5 C149,120.8 149,121.4 148.4,121.8 L135.5,129.2 C134.9,129.5 133.9,129.5 133.3,129.2 L123.9,123.8 C123.3,123.5 123.3,122.9 123.9,122.5 L136.8,115.1 C137.4,114.8 138.4,114.8 139,115.1 L148.4,120.5 Z"></path>
                        <path d="M282.4,43.1 C283,43.4 283,44 282.4,44.4 L271.7,50.6 C271.1,50.9 270.1,50.9 269.5,50.6 L260.1,45.2 C259.5,44.9 259.5,44.3 260.1,43.9 L270.8,37.7 C271.4,37.4 272.4,37.4 273,37.7 L282.4,43.1 Z"></path>
                        <path d="M267.8,51.5 C268.4,51.8 268.4,52.4 267.8,52.8 L257,59 C256.4,59.3 255.4,59.3 254.8,59 L245.4,53.6 C244.8,53.3 244.8,52.7 245.4,52.3 L256.1,46.1 C256.7,45.8 257.7,45.8 258.3,46.1 L267.8,51.5 Z"></path>
                        <path d="M253.1,60 C253.7,60.3 253.7,60.9 253.1,61.3 L242.4,67.5 C241.8,67.8 240.8,67.8 240.2,67.5 L230.8,62.1 C230.2,61.8 230.2,61.2 230.8,60.8 L241.5,54.6 C242.1,54.3 243.1,54.3 243.7,54.6 L253.1,60 Z"></path>
                        <path d="M238.5,68.5 C239.1,68.8 239.1,69.4 238.5,69.8 L225.7,77.2 C225.1,77.5 224.1,77.5 223.5,77.2 L214.1,71.8 C213.5,71.5 213.5,70.9 214.1,70.5 L226.9,63.1 C227.5,62.8 228.5,62.8 229.1,63.1 L238.5,68.5 Z"></path>
                        <path d="M221.2,78.5 C221.8,78.8 221.8,79.4 221.2,79.8 L153.2,119.1 C152.6,119.4 151.6,119.4 151,119.1 L141.6,113.7 C141,113.4 141,112.8 141.6,112.4 L209.6,73.1 C210.2,72.8 211.2,72.8 211.8,73.1 L221.2,78.5 Z"></path>
                        <path d="M236,53.6 C236.6,53.9 236.6,54.5 236,54.9 L225.3,61.1 C224.7,61.4 223.7,61.4 223.1,61.1 L213.7,55.7 C213.1,55.4 213.1,54.8 213.7,54.4 L224.4,48.2 C225,47.9 226,47.9 226.6,48.2 L236,53.6 Z"></path>
                        <path d="M221.6,61.9 C222.2,62.2 222.2,62.8 221.6,63.2 L210.9,69.4 C210.3,69.7 209.3,69.7 208.7,69.4 L199.3,64 C198.7,63.7 198.7,63.1 199.3,62.7 L210,56.5 C210.6,56.2 211.6,56.2 212.2,56.5 L221.6,61.9 Z"></path>
                        <path d="M207.1,70.3 C207.7,70.6 207.7,71.2 207.1,71.6 L196.4,77.8 C195.8,78.1 194.8,78.1 194.2,77.8 L184.8,72.4 C184.2,72.1 184.2,71.5 184.8,71.1 L195.5,64.9 C196.1,64.6 197.1,64.6 197.7,64.9 L207.1,70.3 Z"></path>
                        <path d="M192.6,78.6 C193.2,78.9 193.2,79.5 192.6,79.9 L181.9,86.1 C181.3,86.4 180.3,86.4 179.7,86.1 L170.3,80.7 C169.7,80.4 169.7,79.8 170.3,79.4 L181,73.2 C181.6,72.9 182.6,72.9 183.2,73.2 L192.6,78.6 Z"></path>
                        <path d="M178.2,87 C178.8,87.3 178.8,87.9 178.2,88.3 L167.5,94.5 C166.9,94.8 165.9,94.8 165.3,94.5 L155.9,89.1 C155.3,88.8 155.3,88.2 155.9,87.8 L166.6,81.6 C167.2,81.3 168.2,81.3 168.8,81.6 L178.2,87 Z"></path>
                        <path d="M163.7,95.3 C164.3,95.6 164.3,96.2 163.7,96.6 L153,102.8 C152.4,103.1 151.4,103.1 150.8,102.8 L141.4,97.4 C140.8,97.1 140.8,96.5 141.4,96.1 L152.1,89.9 C152.7,89.6 153.7,89.6 154.3,89.9 L163.7,95.3 Z"></path>
                        <path d="M149.3,103.7 C149.9,104 149.9,104.6 149.3,105 L138.6,111.2 C138,111.5 137,111.5 136.4,111.2 L127,105.8 C126.4,105.5 126.4,104.9 127,104.5 L137.7,98.3 C138.3,98 139.3,98 139.9,98.3 L149.3,103.7 Z"></path>
                        <path d="M134.8,112 C135.4,112.3 135.4,112.9 134.8,113.3 L124.1,119.5 C123.5,119.8 122.5,119.8 121.9,119.5 L112.5,114.1 C111.9,113.8 111.9,113.2 112.5,112.8 L123.2,106.6 C123.8,106.3 124.8,106.3 125.4,106.6 L134.8,112 Z"></path>
                        <path d="M120.3,120.4 C120.9,120.7 120.9,121.3 120.3,121.7 L109.6,127.9 C109,128.2 108,128.2 107.4,127.9 L98,122.5 C97.4,122.2 97.4,121.6 98,121.2 L108.7,115 C109.3,114.7 110.3,114.7 110.9,115 L120.3,120.4 Z"></path>
                        <path d="M105.9,128.7 C106.5,129 106.5,129.6 105.9,130 L95.2,136.2 C94.6,136.5 93.6,136.5 93,136.2 L83.6,130.8 C83,130.5 83,129.9 83.6,129.5 L94.3,123.3 C94.9,123 95.9,123 96.5,123.3 L105.9,128.7 Z"></path>
                        <path d="M268.3,34.9 C268.9,35.2 268.9,35.8 268.3,36.2 L240.6,52.2 C240,52.5 239,52.5 238.4,52.2 L229,46.8 C228.4,46.5 228.4,45.9 229,45.5 L256.7,29.5 C257.3,29.2 258.3,29.2 258.9,29.5 L268.3,34.9 Z"></path>
                        <path d="M228.9,41.4 C229.5,41.7 229.5,42.3 228.9,42.7 L218.2,48.9 C217.6,49.2 216.6,49.2 216,48.9 L206.6,43.5 C206,43.2 206,42.6 206.6,42.2 L217.3,36 C217.9,35.7 218.9,35.7 219.5,36 L228.9,41.4 Z"></path>
                        <path d="M214.4,49.8 C215,50.1 215,50.7 214.4,51.1 L203.7,57.3 C203.1,57.6 202.1,57.6 201.5,57.3 L192.1,51.9 C191.5,51.6 191.5,51 192.1,50.6 L202.8,44.4 C203.4,44.1 204.4,44.1 205,44.4 L214.4,49.8 Z"></path>
                        <path d="M200,58.1 C200.6,58.4 200.6,59 200,59.4 L189.3,65.6 C188.7,65.9 187.7,65.9 187.1,65.6 L177.7,60.2 C177.1,59.9 177.1,59.3 177.7,58.9 L188.4,52.7 C189,52.4 190,52.4 190.6,52.7 L200,58.1 Z"></path>
                        <path d="M185.5,66.5 C186.1,66.8 186.1,67.4 185.5,67.8 L174.8,74 C174.2,74.3 173.2,74.3 172.6,74 L163.2,68.6 C162.6,68.3 162.6,67.7 163.2,67.3 L173.9,61.1 C174.5,60.8 175.5,60.8 176.1,61.1 L185.5,66.5 Z"></path>
                        <path d="M171,74.8 C171.6,75.1 171.6,75.7 171,76.1 L160.3,82.3 C159.7,82.6 158.7,82.6 158.1,82.3 L148.7,76.9 C148.1,76.6 148.1,76 148.7,75.6 L159.4,69.4 C160,69.1 161,69.1 161.6,69.4 L171,74.8 Z"></path>
                        <path d="M156.5,83.2 C157.1,83.5 157.1,84.1 156.5,84.5 L145.8,90.7 C145.2,91 144.2,91 143.6,90.7 L134.2,85.3 C133.6,85 133.6,84.4 134.2,84 L144.9,77.8 C145.5,77.5 146.5,77.5 147.1,77.8 L156.5,83.2 Z"></path>
                        <path d="M142,91.6 C142.6,91.9 142.6,92.5 142,92.9 L131.3,99.1 C130.7,99.4 129.7,99.4 129.1,99.1 L119.7,93.7 C119.1,93.4 119.1,92.8 119.7,92.4 L130.4,86.2 C131,85.9 132,85.9 132.6,86.2 L142,91.6 Z"></path>
                        <path d="M127.6,99.9 C128.2,100.2 128.2,100.8 127.6,101.2 L116.9,107.4 C116.3,107.7 115.3,107.7 114.7,107.4 L105.3,102 C104.7,101.7 104.7,101.1 105.3,100.7 L116,94.5 C116.6,94.2 117.6,94.2 118.2,94.5 L127.6,99.9 Z"></path>
                        <path d="M113.1,108.3 C113.7,108.6 113.7,109.2 113.1,109.6 L102.4,115.8 C101.8,116.1 100.8,116.1 100.2,115.8 L90.8,110.4 C90.2,110.1 90.2,109.5 90.8,109.1 L101.5,102.9 C102.1,102.6 103.1,102.6 103.7,102.9 L113.1,108.3 Z"></path>
                        <path d="M98.6,116.6 C99.2,116.9 99.2,117.5 98.6,117.9 L87.9,124.1 C87.3,124.4 86.3,124.4 85.7,124.1 L76.3,118.7 C75.7,118.4 75.7,117.8 76.3,117.4 L87,111.2 C87.6,110.9 88.6,110.9 89.2,111.2 L98.6,116.6 Z"></path>
                        <path d="M84.1,125 C84.7,125.3 84.7,125.9 84.1,126.3 L73.4,132.5 C72.8,132.8 71.8,132.8 71.2,132.5 L61.8,127.1 C61.2,126.8 61.2,126.2 61.8,125.8 L72.5,119.6 C73.1,119.3 74.1,119.3 74.7,119.6 L84.1,125 Z"></path>
                        <path d="M254.2,26.8 C254.8,27.1 254.8,27.7 254.2,28.1 L234,39.7 C233.4,40 232.4,40 231.8,39.7 L222.4,34.3 C221.8,34 221.8,33.4 222.4,33 L242.6,21.3 C243.2,21 244.2,21 244.8,21.3 L254.2,26.8 Z"></path>
                        <path d="M68.6,134 C69.2,134.3 69.2,134.9 68.6,135.3 L48.4,147 C47.8,147.3 46.8,147.3 46.2,147 L36.8,141.6 C36.2,141.3 36.2,140.7 36.8,140.3 L57,128.6 C57.6,128.3 58.6,128.3 59.2,128.6 L68.6,134 Z"></path>
                        <path d="M90.9,137.4 C91.5,137.7 91.5,138.3 90.9,138.7 L62.5,155 C61.9,155.3 60.9,155.3 60.3,155 L50.9,149.6 C50.3,149.3 50.3,148.7 50.9,148.3 L79.3,131.9 C79.9,131.6 80.9,131.6 81.5,131.9 L90.9,137.4 Z"></path>
                        <path d="M95.7,143.6 C96.3,143.9 96.3,144.5 95.7,144.9 L85,151.1 C84.4,151.4 83.4,151.4 82.8,151.1 L79.7,149.3 C79.1,149 79.1,148.4 79.7,148 L90.4,141.8 C91,141.5 92,141.5 92.6,141.8 L95.7,143.6 Z"></path>
                    </g>
                    <g transform="translate(7.000000, 3.000000)" fill="#C7CBD3" id="Path">
                        <path d="M6,123.1 L211.8,4.3 C212.4,4 212.3,3.3 211.6,2.9 L208.8,1.3 C208.1,0.9 207.1,0.9 206.5,1.2 L0.8,120.1 C0.2,120.4 0.3,121.1 1,121.5 L3.8,123.1 C4.4,123.4 5.4,123.5 6,123.1 Z"></path>
                        <path d="M213.1,18.6 C213.7,18.9 214.7,18.9 215.3,18.6 L226,12.4 C226.6,12.1 226.6,11.5 226,11.1 L216.6,5.7 C216,5.4 215,5.4 214.4,5.7 L203.7,11.9 C203.1,12.2 203.1,12.8 203.7,13.2 L213.1,18.6 Z"></path>
                        <path d="M198.6,27 C199.2,27.3 200.2,27.3 200.8,27 L211.5,20.8 C212.1,20.5 212.1,19.9 211.5,19.5 L202.1,14.1 C201.5,13.8 200.5,13.8 199.9,14.1 L189.2,20.3 C188.6,20.6 188.6,21.2 189.2,21.6 L198.6,27 Z"></path>
                        <path d="M184.1,35.3 C184.7,35.6 185.7,35.6 186.3,35.3 L197,29.1 C197.6,28.8 197.6,28.2 197,27.8 L187.6,22.4 C187,22.1 186,22.1 185.4,22.4 L174.7,28.6 C174.1,28.9 174.1,29.5 174.7,29.9 L184.1,35.3 Z"></path>
                        <path d="M169.7,43.7 C170.3,44 171.3,44 171.9,43.7 L182.6,37.5 C183.2,37.2 183.2,36.6 182.6,36.2 L173.2,30.8 C172.6,30.5 171.6,30.5 171,30.8 L160.3,37 C159.7,37.3 159.7,37.9 160.3,38.3 L169.7,43.7 Z"></path>
                        <path d="M155.2,52 C155.8,52.3 156.8,52.3 157.4,52 L168.1,45.8 C168.7,45.5 168.7,44.9 168.1,44.5 L158.7,39.1 C158.1,38.8 157.1,38.8 156.5,39.1 L145.8,45.3 C145.2,45.6 145.2,46.2 145.8,46.6 L155.2,52 Z"></path>
                        <path d="M140.7,60.4 C141.3,60.7 142.3,60.7 142.9,60.4 L153.6,54.2 C154.2,53.9 154.2,53.3 153.6,52.9 L144.2,47.5 C143.6,47.2 142.6,47.2 142,47.5 L131.3,53.7 C130.7,54 130.7,54.6 131.3,55 L140.7,60.4 Z"></path>
                        <path d="M126.3,68.7 C126.9,69 127.9,69 128.5,68.7 L139.2,62.5 C139.8,62.2 139.8,61.6 139.2,61.2 L129.8,55.8 C129.2,55.5 128.2,55.5 127.6,55.8 L116.9,62 C116.3,62.3 116.3,62.9 116.9,63.3 L126.3,68.7 Z"></path>
                        <path d="M111.8,77.1 C112.4,77.4 113.4,77.4 114,77.1 L124.7,70.9 C125.3,70.6 125.3,70 124.7,69.6 L115.3,64.2 C114.7,63.9 113.7,63.9 113.1,64.2 L102.4,70.4 C101.8,70.7 101.8,71.3 102.4,71.7 L111.8,77.1 Z"></path>
                        <path d="M97.3,85.4 C97.9,85.7 98.9,85.7 99.5,85.4 L110.2,79.2 C110.8,78.9 110.8,78.3 110.2,77.9 L100.8,72.5 C100.2,72.2 99.2,72.2 98.6,72.5 L87.9,78.7 C87.3,79 87.3,79.6 87.9,80 L97.3,85.4 Z"></path>
                        <path d="M82.9,93.8 C83.5,94.1 84.5,94.1 85.1,93.8 L95.8,87.6 C96.4,87.3 96.4,86.7 95.8,86.3 L86.4,80.9 C85.8,80.6 84.8,80.6 84.2,80.9 L73.5,87.1 C72.9,87.4 72.9,88 73.5,88.4 L82.9,93.8 Z"></path>
                        <path d="M68.4,102.1 C69,102.4 70,102.4 70.6,102.1 L81.3,95.9 C81.9,95.6 81.9,95 81.3,94.6 L71.9,89.2 C71.3,88.9 70.3,88.9 69.7,89.2 L59,95.4 C58.4,95.7 58.4,96.3 59,96.7 L68.4,102.1 Z"></path>
                        <path d="M53.9,110.5 C54.5,110.8 55.5,110.8 56.1,110.5 L66.8,104.3 C67.4,104 67.4,103.4 66.8,103 L57.4,97.6 C56.8,97.3 55.8,97.3 55.2,97.6 L44.5,103.8 C43.9,104.1 43.9,104.7 44.5,105.1 L53.9,110.5 Z"></path>
                        <path d="M39.5,118.9 C40.1,119.2 41.1,119.2 41.7,118.9 L52.4,112.7 C53,112.4 53,111.8 52.4,111.4 L43,106 C42.4,105.7 41.4,105.7 40.8,106 L30.1,112.2 C29.5,112.5 29.5,113.1 30.1,113.5 L39.5,118.9 Z"></path>
                        <path d="M18,131.3 C18.6,131.6 19.6,131.6 20.2,131.3 L37.5,121.3 C38.1,121 38.1,120.4 37.5,120 L28.1,114.6 C27.5,114.3 26.5,114.3 25.9,114.6 L8.6,124.6 C8,124.9 8,125.5 8.6,125.9 L18,131.3 Z"></path>
                        <path d="M45,132 C45.6,132.3 45.6,132.9 45,133.3 L34.3,139.5 C33.7,139.8 32.7,139.8 32.1,139.5 L22.7,134.1 C22.1,133.8 22.1,133.2 22.7,132.8 L33.4,126.6 C34,126.3 35,126.3 35.6,126.6 L45,132 Z"></path>
                        <path d="M59.5,123.6 C60.1,123.9 60.1,124.5 59.5,124.9 L48.8,131.1 C48.2,131.4 47.2,131.4 46.6,131.1 L37.2,125.7 C36.6,125.4 36.6,124.8 37.2,124.4 L47.9,118.2 C48.5,117.9 49.5,117.9 50.1,118.2 L59.5,123.6 Z"></path>
                        <path d="M73.9,115.2 C74.5,115.5 74.5,116.1 73.9,116.5 L63.2,122.7 C62.6,123 61.6,123 61,122.7 L51.6,117.3 C51,117 51,116.4 51.6,116 L62.3,109.8 C62.9,109.5 63.9,109.5 64.5,109.8 L73.9,115.2 Z"></path>
                        <path d="M88.4,106.9 C89,107.2 89,107.8 88.4,108.2 L77.7,114.4 C77.1,114.7 76.1,114.7 75.5,114.4 L66.1,109 C65.5,108.7 65.5,108.1 66.1,107.7 L76.8,101.5 C77.4,101.2 78.4,101.2 79,101.5 L88.4,106.9 Z"></path>
                        <path d="M102.9,98.5 C103.5,98.8 103.5,99.4 102.9,99.8 L92.2,106 C91.6,106.3 90.6,106.3 90,106 L80.6,100.6 C80,100.3 80,99.7 80.6,99.3 L91.3,93.1 C91.9,92.8 92.9,92.8 93.5,93.1 L102.9,98.5 Z"></path>
                        <path d="M117.3,90.2 C117.9,90.5 117.9,91.1 117.3,91.5 L106.6,97.7 C106,98 105,98 104.4,97.7 L95,92.3 C94.4,92 94.4,91.4 95,91 L105.7,84.8 C106.3,84.5 107.3,84.5 107.9,84.8 L117.3,90.2 Z"></path>
                        <path d="M131.8,81.8 C132.4,82.1 132.4,82.7 131.8,83.1 L121.1,89.3 C120.5,89.6 119.5,89.6 118.9,89.3 L109.5,83.9 C108.9,83.6 108.9,83 109.5,82.6 L120.2,76.4 C120.8,76.1 121.8,76.1 122.4,76.4 L131.8,81.8 Z"></path>
                        <path d="M146.3,73.5 C146.9,73.8 146.9,74.4 146.3,74.8 L135.6,81 C135,81.3 134,81.3 133.4,81 L124,75.6 C123.4,75.3 123.4,74.7 124,74.3 L134.7,68.1 C135.3,67.8 136.3,67.8 136.9,68.1 L146.3,73.5 Z"></path>
                        <path d="M160.7,65.1 C161.3,65.4 161.3,66 160.7,66.4 L150,72.6 C149.4,72.9 148.4,72.9 147.8,72.6 L138.4,67.2 C137.8,66.9 137.8,66.3 138.4,65.9 L149.1,59.7 C149.7,59.4 150.7,59.4 151.3,59.7 L160.7,65.1 Z"></path>
                        <path d="M175.2,56.8 C175.8,57.1 175.8,57.7 175.2,58.1 L164.5,64.3 C163.9,64.6 162.9,64.6 162.3,64.3 L152.9,58.9 C152.3,58.6 152.3,58 152.9,57.6 L163.6,51.4 C164.2,51.1 165.2,51.1 165.8,51.4 L175.2,56.8 Z"></path>
                        <path d="M189.7,48.4 C190.3,48.7 190.3,49.3 189.7,49.7 L179,55.9 C178.4,56.2 177.4,56.2 176.8,55.9 L167.4,50.5 C166.8,50.2 166.8,49.6 167.4,49.2 L178.1,43 C178.7,42.7 179.7,42.7 180.3,43 L189.7,48.4 Z"></path>
                        <path d="M204.1,40.1 C204.7,40.4 204.7,41 204.1,41.4 L193.4,47.6 C192.8,47.9 191.8,47.9 191.2,47.6 L181.8,42.2 C181.2,41.9 181.2,41.3 181.8,40.9 L192.5,34.7 C193.1,34.4 194.1,34.4 194.7,34.7 L204.1,40.1 Z"></path>
                        <path d="M218.6,31.7 C219.2,32 219.2,32.6 218.6,33 L207.9,39.2 C207.3,39.5 206.3,39.5 205.7,39.2 L196.3,33.8 C195.7,33.5 195.7,32.9 196.3,32.5 L207,26.3 C207.6,26 208.6,26 209.2,26.3 L218.6,31.7 Z"></path>
                        <path d="M240.1,19.3 C240.7,19.6 240.7,20.2 240.1,20.6 L222.8,30.6 C222.2,30.9 221.2,30.9 220.6,30.6 L211.2,25.2 C210.6,24.9 210.6,24.3 211.2,23.9 L228.5,13.9 C229.1,13.6 230.1,13.6 230.7,13.9 L240.1,19.3 Z"></path>
                        <path d="M87.3,156.4 C87.9,156.7 87.9,157.3 87.3,157.7 L76.6,163.9 C76,164.2 75,164.2 74.4,163.9 L65,158.5 C64.4,158.2 64.4,157.6 65,157.2 L75.7,151 C76.3,150.7 77.3,150.7 77.9,151 L87.3,156.4 Z"></path>
                        <path d="M102,147.9 C102.6,148.2 102.6,148.8 102,149.2 L91.3,155.4 C90.7,155.7 89.7,155.7 89.1,155.4 L86,153.6 C85.4,153.3 85.4,152.7 86,152.3 L96.7,146.1 C97.3,145.8 98.3,145.8 98.9,146.1 L102,147.9 Z"></path>
                        <path d="M116.6,139.5 C117.2,139.8 117.2,140.4 116.6,140.8 L105.9,147 C105.3,147.3 104.3,147.3 103.7,147 L94.3,141.6 C93.7,141.3 93.7,140.7 94.3,140.3 L105,134.1 C105.6,133.8 106.6,133.8 107.2,134.1 L116.6,139.5 Z"></path>
                        <path d="M131.3,131 C131.9,131.3 131.9,131.9 131.3,132.3 L120.6,138.5 C120,138.8 119,138.8 118.4,138.5 L109,133 C108.4,132.7 108.4,132.1 109,131.7 L119.7,125.5 C120.3,125.2 121.3,125.2 121.9,125.5 L131.3,131 Z"></path>
                        <path d="M148.4,121.1 C149,121.4 149,122 148.4,122.4 L135.5,129.8 C134.9,130.1 133.9,130.1 133.3,129.8 L123.9,124.4 C123.3,124.1 123.3,123.5 123.9,123.1 L136.8,115.7 C137.4,115.4 138.4,115.4 139,115.7 L148.4,121.1 Z"></path>
                        <path d="M282.4,43.7 C283,44 283,44.6 282.4,45 L271.7,51.2 C271.1,51.5 270.1,51.5 269.5,51.2 L260.1,45.8 C259.5,45.5 259.5,44.9 260.1,44.5 L270.8,38.3 C271.4,38 272.4,38 273,38.3 L282.4,43.7 Z"></path>
                        <path d="M267.8,52.2 C268.4,52.5 268.4,53.1 267.8,53.5 L257.1,59.7 C256.5,60 255.5,60 254.9,59.7 L245.5,54.3 C244.9,54 244.9,53.4 245.5,53 L256.2,46.8 C256.8,46.5 257.8,46.5 258.4,46.8 L267.8,52.2 Z"></path>
                        <path d="M253.1,60.6 C253.7,60.9 253.7,61.5 253.1,61.9 L242.4,68.1 C241.8,68.4 240.8,68.4 240.2,68.1 L230.8,62.7 C230.2,62.4 230.2,61.8 230.8,61.4 L241.5,55.2 C242.1,54.9 243.1,54.9 243.7,55.2 L253.1,60.6 Z"></path>
                        <path d="M238.5,69.1 C239.1,69.4 239.1,70 238.5,70.4 L225.7,77.8 C225.1,78.1 224.1,78.1 223.5,77.8 L214.1,72.4 C213.5,72.1 213.5,71.5 214.1,71.1 L226.9,63.7 C227.5,63.4 228.5,63.4 229.1,63.7 L238.5,69.1 Z"></path>
                        <path d="M221.2,79.1 C221.8,79.4 221.8,80 221.2,80.4 L153.2,119.7 C152.6,120 151.6,120 151,119.7 L141.6,114.3 C141,114 141,113.4 141.6,113 L209.6,73.7 C210.2,73.4 211.2,73.4 211.8,73.7 L221.2,79.1 Z"></path>
                        <path d="M236,54.2 C236.6,54.5 236.6,55.1 236,55.5 L225.3,61.7 C224.7,62 223.7,62 223.1,61.7 L213.7,56.3 C213.1,56 213.1,55.4 213.7,55 L224.4,48.8 C225,48.5 226,48.5 226.6,48.8 L236,54.2 Z"></path>
                        <path d="M221.6,62.6 C222.2,62.9 222.2,63.5 221.6,63.9 L210.9,70.1 C210.3,70.4 209.3,70.4 208.7,70.1 L199.3,64.7 C198.7,64.4 198.7,63.8 199.3,63.4 L210,57.2 C210.6,56.9 211.6,56.9 212.2,57.2 L221.6,62.6 Z"></path>
                        <path d="M207.1,70.9 C207.7,71.2 207.7,71.8 207.1,72.2 L196.4,78.4 C195.8,78.7 194.8,78.7 194.2,78.4 L184.8,73 C184.2,72.7 184.2,72.1 184.8,71.7 L195.5,65.5 C196.1,65.2 197.1,65.2 197.7,65.5 L207.1,70.9 Z"></path>
                        <path d="M192.6,79.3 C193.2,79.6 193.2,80.2 192.6,80.6 L181.9,86.8 C181.3,87.1 180.3,87.1 179.7,86.8 L170.3,81.4 C169.7,81.1 169.7,80.5 170.3,80.1 L181,73.9 C181.6,73.6 182.6,73.6 183.2,73.9 L192.6,79.3 Z"></path>
                        <path d="M178.2,87.6 C178.8,87.9 178.8,88.5 178.2,88.9 L167.5,95.1 C166.9,95.4 165.9,95.4 165.3,95.1 L155.9,89.7 C155.3,89.4 155.3,88.8 155.9,88.4 L166.6,82.2 C167.2,81.9 168.2,81.9 168.8,82.2 L178.2,87.6 Z"></path>
                        <path d="M163.7,96 C164.3,96.3 164.3,96.9 163.7,97.3 L153,103.5 C152.4,103.8 151.4,103.8 150.8,103.5 L141.4,98.1 C140.8,97.8 140.8,97.2 141.4,96.8 L152.1,90.6 C152.7,90.3 153.7,90.3 154.3,90.6 L163.7,96 Z"></path>
                        <path d="M149.3,104.3 C149.9,104.6 149.9,105.2 149.3,105.6 L138.6,111.8 C138,112.1 137,112.1 136.4,111.8 L127,106.4 C126.4,106.1 126.4,105.5 127,105.1 L137.7,98.9 C138.3,98.6 139.3,98.6 139.9,98.9 L149.3,104.3 Z"></path>
                        <path d="M134.8,112.7 C135.4,113 135.4,113.6 134.8,114 L124.1,120.2 C123.5,120.5 122.5,120.5 121.9,120.2 L112.5,114.8 C111.9,114.5 111.9,113.9 112.5,113.5 L123.2,107.3 C123.8,107 124.8,107 125.4,107.3 L134.8,112.7 Z"></path>
                        <path d="M120.3,121 C120.9,121.3 120.9,121.9 120.3,122.3 L109.6,128.5 C109,128.8 108,128.8 107.4,128.5 L98,123.1 C97.4,122.8 97.4,122.2 98,121.8 L108.7,115.6 C109.3,115.3 110.3,115.3 110.9,115.6 L120.3,121 Z"></path>
                        <path d="M105.9,129.4 C106.5,129.7 106.5,130.3 105.9,130.7 L95.2,136.9 C94.6,137.2 93.6,137.2 93,136.9 L83.6,131.5 C83,131.2 83,130.6 83.6,130.2 L94.3,124 C94.9,123.7 95.9,123.7 96.5,124 L105.9,129.4 Z"></path>
                        <path d="M268.3,35.6 C268.9,35.9 268.9,36.5 268.3,36.9 L240.6,52.9 C240,53.2 239,53.2 238.4,52.9 L229,47.5 C228.4,47.2 228.4,46.6 229,46.2 L256.7,30.2 C257.3,29.9 258.3,29.9 258.9,30.2 L268.3,35.6 Z"></path>
                        <path d="M228.9,42 C229.5,42.3 229.5,42.9 228.9,43.3 L218.2,49.5 C217.6,49.8 216.6,49.8 216,49.5 L206.6,44.1 C206,43.8 206,43.2 206.6,42.8 L217.3,36.6 C217.9,36.3 218.9,36.3 219.5,36.6 L228.9,42 Z"></path>
                        <path d="M214.4,50.4 C215,50.7 215,51.3 214.4,51.7 L203.7,57.9 C203.1,58.2 202.1,58.2 201.5,57.9 L192.1,52.5 C191.5,52.2 191.5,51.6 192.1,51.2 L202.8,45 C203.4,44.7 204.4,44.7 205,45 L214.4,50.4 Z"></path>
                        <path d="M200,58.8 C200.6,59.1 200.6,59.7 200,60.1 L189.3,66.3 C188.7,66.6 187.7,66.6 187.1,66.3 L177.7,60.9 C177.1,60.6 177.1,60 177.7,59.6 L188.4,53.4 C189,53.1 190,53.1 190.6,53.4 L200,58.8 Z"></path>
                        <path d="M185.5,67.1 C186.1,67.4 186.1,68 185.5,68.4 L174.8,74.6 C174.2,74.9 173.2,74.9 172.6,74.6 L163.2,69.2 C162.6,68.9 162.6,68.3 163.2,67.9 L173.9,61.7 C174.5,61.4 175.5,61.4 176.1,61.7 L185.5,67.1 Z"></path>
                        <path d="M171,75.5 C171.6,75.8 171.6,76.4 171,76.8 L160.3,83 C159.7,83.3 158.7,83.3 158.1,83 L148.7,77.6 C148.1,77.3 148.1,76.7 148.7,76.3 L159.4,70.1 C160,69.8 161,69.8 161.6,70.1 L171,75.5 Z"></path>
                        <path d="M156.5,83.9 C157.1,84.2 157.1,84.8 156.5,85.2 L145.8,91.4 C145.2,91.7 144.2,91.7 143.6,91.4 L134.2,86 C133.6,85.7 133.6,85.1 134.2,84.7 L144.9,78.5 C145.5,78.2 146.5,78.2 147.1,78.5 L156.5,83.9 Z"></path>
                        <path d="M142,92.2 C142.6,92.5 142.6,93.1 142,93.5 L131.3,99.7 C130.7,100 129.7,100 129.1,99.7 L119.7,94.3 C119.1,94 119.1,93.4 119.7,93 L130.4,86.8 C131,86.5 132,86.5 132.6,86.8 L142,92.2 Z"></path>
                        <path d="M127.6,100.6 C128.2,100.9 128.2,101.5 127.6,101.9 L116.9,108.1 C116.3,108.4 115.3,108.4 114.7,108.1 L105.3,102.7 C104.7,102.4 104.7,101.8 105.3,101.4 L116,95.2 C116.6,94.9 117.6,94.9 118.2,95.2 L127.6,100.6 Z"></path>
                        <path d="M113.1,108.9 C113.7,109.2 113.7,109.8 113.1,110.2 L102.4,116.4 C101.8,116.7 100.8,116.7 100.2,116.4 L90.8,111 C90.2,110.7 90.2,110.1 90.8,109.7 L101.5,103.5 C102.1,103.2 103.1,103.2 103.7,103.5 L113.1,108.9 Z"></path>
                        <path d="M98.6,117.3 C99.2,117.6 99.2,118.2 98.6,118.6 L87.9,124.8 C87.3,125.1 86.3,125.1 85.7,124.8 L76.3,119.4 C75.7,119.1 75.7,118.5 76.3,118.1 L87,111.9 C87.6,111.6 88.6,111.6 89.2,111.9 L98.6,117.3 Z"></path>
                        <path d="M84.1,125.7 C84.7,126 84.7,126.6 84.1,127 L73.4,133.2 C72.8,133.5 71.8,133.5 71.2,133.2 L61.8,127.8 C61.2,127.5 61.2,126.9 61.8,126.5 L72.5,120.3 C73.1,120 74.1,120 74.7,120.3 L84.1,125.7 Z"></path>
                        <path d="M254.2,27.5 C254.8,27.8 254.8,28.4 254.2,28.8 L234,40.4 C233.4,40.7 232.4,40.7 231.8,40.4 L222.4,35 C221.8,34.7 221.8,34.1 222.4,33.7 L242.6,22 C243.2,21.7 244.2,21.7 244.8,22 L254.2,27.5 Z"></path>
                        <path d="M68.6,134.6 C69.2,134.9 69.2,135.5 68.6,135.9 L48.4,147.6 C47.8,147.9 46.8,147.9 46.2,147.6 L36.8,142.2 C36.2,141.9 36.2,141.3 36.8,140.9 L57,129.2 C57.6,128.9 58.6,128.9 59.2,129.2 L68.6,134.6 Z"></path>
                        <path d="M90.9,138 C91.5,138.3 91.5,138.9 90.9,139.3 L62.5,155.7 C61.9,156 60.9,156 60.3,155.7 L50.9,150.3 C50.3,150 50.3,149.4 50.9,149 L79.3,132.6 C79.9,132.3 80.9,132.3 81.5,132.6 L90.9,138 Z"></path>
                        <path d="M95.7,144.3 C96.3,144.6 96.3,145.2 95.7,145.6 L85,151.8 C84.4,152.1 83.4,152.1 82.8,151.8 L79.7,150 C79.1,149.7 79.1,149.1 79.7,148.7 L90.4,142.5 C91,142.2 92,142.2 92.6,142.5 L95.7,144.3 Z"></path>
                    </g>
                    <path d="M10.7,126 L7.9,124.4 C7.2,124 7.1,123.4 7.7,123 L213.5,4.2 C214.1,3.9 215.1,3.9 215.8,4.3 L218.6,5.9 C219.3,6.3 219.4,6.9 218.8,7.3 L13,126.1 C12.4,126.5 11.4,126.4 10.7,126 Z M220.1,20.7 C220.7,21 221.7,21 222.3,20.7 L233,14.5 C233.6,14.2 233.6,13.6 233,13.2 L223.6,7.8 C223,7.5 222,7.5 221.4,7.8 L210.7,14 C210.1,14.3 210.1,14.9 210.7,15.3 L220.1,20.7 Z M205.6,29.1 C206.2,29.4 207.2,29.4 207.8,29.1 L218.5,22.9 C219.1,22.6 219.1,22 218.5,21.6 L209.1,16.2 C208.5,15.9 207.5,15.9 206.9,16.2 L196.2,22.4 C195.6,22.7 195.6,23.3 196.2,23.7 L205.6,29.1 Z M191.1,37.5 C191.7,37.8 192.7,37.8 193.3,37.5 L204,31.3 C204.6,31 204.6,30.4 204,30 L194.6,24.6 C194,24.3 193,24.3 192.4,24.6 L181.7,30.8 C181.1,31.1 181.1,31.7 181.7,32.1 L191.1,37.5 Z M176.7,45.8 C177.3,46.1 178.3,46.1 178.9,45.8 L189.6,39.6 C190.2,39.3 190.2,38.7 189.6,38.3 L180.2,32.9 C179.6,32.6 178.6,32.6 178,32.9 L167.3,39.1 C166.7,39.4 166.7,40 167.3,40.4 L176.7,45.8 Z M162.2,54.2 C162.8,54.5 163.8,54.5 164.4,54.2 L175.1,48 C175.7,47.7 175.7,47.1 175.1,46.7 L165.7,41.3 C165.1,41 164.1,41 163.5,41.3 L152.8,47.5 C152.2,47.8 152.2,48.4 152.8,48.8 L162.2,54.2 Z M147.7,62.5 C148.3,62.8 149.3,62.8 149.9,62.5 L160.6,56.3 C161.2,56 161.2,55.4 160.6,55 L151.2,49.6 C150.6,49.3 149.6,49.3 149,49.6 L138.3,55.8 C137.7,56.1 137.7,56.7 138.3,57.1 L147.7,62.5 Z M133.3,70.9 C133.9,71.2 134.9,71.2 135.5,70.9 L146.2,64.7 C146.8,64.4 146.8,63.8 146.2,63.4 L136.8,58 C136.2,57.7 135.2,57.7 134.6,58 L123.9,64.2 C123.3,64.5 123.3,65.1 123.9,65.5 L133.3,70.9 Z M118.8,79.2 C119.4,79.5 120.4,79.5 121,79.2 L131.7,73 C132.3,72.7 132.3,72.1 131.7,71.7 L122.3,66.3 C121.7,66 120.7,66 120.1,66.3 L109.4,72.5 C108.8,72.8 108.8,73.4 109.4,73.8 L118.8,79.2 Z M104.3,87.6 C104.9,87.9 105.9,87.9 106.5,87.6 L117.2,81.4 C117.8,81.1 117.8,80.5 117.2,80.1 L107.8,74.7 C107.2,74.4 106.2,74.4 105.6,74.7 L94.9,80.9 C94.3,81.2 94.3,81.8 94.9,82.2 L104.3,87.6 Z M89.9,95.9 C90.5,96.2 91.5,96.2 92.1,95.9 L102.8,89.7 C103.4,89.4 103.4,88.8 102.8,88.4 L93.4,83 C92.8,82.7 91.8,82.7 91.2,83 L80.5,89.2 C79.9,89.5 79.9,90.1 80.5,90.5 L89.9,95.9 Z M75.4,104.3 C76,104.6 77,104.6 77.6,104.3 L88.3,98.1 C88.9,97.8 88.9,97.2 88.3,96.8 L78.9,91.4 C78.3,91.1 77.3,91.1 76.7,91.4 L66,97.6 C65.4,97.9 65.4,98.5 66,98.9 L75.4,104.3 Z M60.9,112.6 C61.5,112.9 62.5,112.9 63.1,112.6 L73.8,106.4 C74.4,106.1 74.4,105.5 73.8,105.1 L64.4,99.7 C63.8,99.4 62.8,99.4 62.2,99.7 L51.5,105.9 C50.9,106.2 50.9,106.8 51.5,107.2 L60.9,112.6 Z M46.5,121 C47.1,121.3 48.1,121.3 48.7,121 L59.4,114.8 C60,114.5 60,113.9 59.4,113.5 L50,108.1 C49.4,107.8 48.4,107.8 47.8,108.1 L37.1,114.3 C36.5,114.6 36.5,115.2 37.1,115.6 L46.5,121 Z M25,133.4 C25.6,133.7 26.6,133.7 27.2,133.4 L44.5,123.4 C45.1,123.1 45.1,122.5 44.5,122.1 L35.1,116.7 C34.5,116.4 33.5,116.4 32.9,116.7 L15.6,126.7 C15,127 15,127.6 15.6,128 L25,133.4 Z M42.6,128.7 C42,128.4 41,128.4 40.4,128.7 L29.7,134.9 C29.1,135.2 29.1,135.8 29.7,136.2 L39.1,141.6 C39.7,141.9 40.7,141.9 41.3,141.6 L52,135.4 C52.6,135.1 52.6,134.5 52,134.1 L42.6,128.7 Z M57.1,120.3 C56.5,120 55.5,120 54.9,120.3 L44.2,126.5 C43.6,126.8 43.6,127.4 44.2,127.8 L53.6,133.2 C54.2,133.5 55.2,133.5 55.8,133.2 L66.5,127 C67.1,126.7 67.1,126.1 66.5,125.7 L57.1,120.3 Z M71.6,112 C71,111.7 70,111.7 69.4,112 L58.7,118.2 C58.1,118.5 58.1,119.1 58.7,119.5 L68.1,124.9 C68.7,125.2 69.7,125.2 70.3,124.9 L81,118.7 C81.6,118.4 81.6,117.8 81,117.4 L71.6,112 Z M86,103.6 C85.4,103.3 84.4,103.3 83.8,103.6 L73.1,109.8 C72.5,110.1 72.5,110.7 73.1,111.1 L82.5,116.5 C83.1,116.8 84.1,116.8 84.7,116.5 L95.4,110.3 C96,110 96,109.4 95.4,109 L86,103.6 Z M100.5,95.3 C99.9,95 98.9,95 98.3,95.3 L87.6,101.5 C87,101.8 87,102.4 87.6,102.8 L97,108.2 C97.6,108.5 98.6,108.5 99.2,108.2 L109.9,102 C110.5,101.7 110.5,101.1 109.9,100.7 L100.5,95.3 Z M115,86.9 C114.4,86.6 113.4,86.6 112.8,86.9 L102.1,93.1 C101.5,93.4 101.5,94 102.1,94.4 L111.5,99.8 C112.1,100.1 113.1,100.1 113.7,99.8 L124.4,93.6 C125,93.3 125,92.7 124.4,92.3 L115,86.9 Z M129.4,78.6 C128.8,78.3 127.8,78.3 127.2,78.6 L116.5,84.8 C115.9,85.1 115.9,85.7 116.5,86.1 L125.9,91.5 C126.5,91.8 127.5,91.8 128.1,91.5 L138.8,85.3 C139.4,85 139.4,84.4 138.8,84 L129.4,78.6 Z M143.9,70.2 C143.3,69.9 142.3,69.9 141.7,70.2 L131,76.4 C130.4,76.7 130.4,77.3 131,77.7 L140.4,83.1 C141,83.4 142,83.4 142.6,83.1 L153.3,76.9 C153.9,76.6 153.9,76 153.3,75.6 L143.9,70.2 Z M158.4,61.8 C157.8,61.5 156.8,61.5 156.2,61.8 L145.5,68 C144.9,68.3 144.9,68.9 145.5,69.3 L154.9,74.7 C155.5,75 156.5,75 157.1,74.7 L167.8,68.5 C168.4,68.2 168.4,67.6 167.8,67.2 L158.4,61.8 Z M172.8,53.5 C172.2,53.2 171.2,53.2 170.6,53.5 L159.9,59.7 C159.3,60 159.3,60.6 159.9,61 L169.3,66.4 C169.9,66.7 170.9,66.7 171.5,66.4 L182.2,60.2 C182.8,59.9 182.8,59.3 182.2,58.9 L172.8,53.5 Z M187.3,45.1 C186.7,44.8 185.7,44.8 185.1,45.1 L174.4,51.3 C173.8,51.6 173.8,52.2 174.4,52.6 L183.8,58 C184.4,58.3 185.4,58.3 186,58 L196.7,51.8 C197.3,51.5 197.3,50.9 196.7,50.5 L187.3,45.1 Z M201.8,36.8 C201.2,36.5 200.2,36.5 199.6,36.8 L188.9,43 C188.3,43.3 188.3,43.9 188.9,44.3 L198.3,49.7 C198.9,50 199.9,50 200.5,49.7 L211.2,43.5 C211.8,43.2 211.8,42.6 211.2,42.2 L201.8,36.8 Z M216.2,28.4 C215.6,28.1 214.6,28.1 214,28.4 L203.3,34.6 C202.7,34.9 202.7,35.5 203.3,35.9 L212.7,41.3 C213.3,41.6 214.3,41.6 214.9,41.3 L225.6,35.1 C226.2,34.8 226.2,34.2 225.6,33.8 L216.2,28.4 Z M237.7,16 C237.1,15.7 236.1,15.7 235.5,16 L218.2,26 C217.6,26.3 217.6,26.9 218.2,27.3 L227.6,32.7 C228.2,33 229.2,33 229.8,32.7 L247.1,22.7 C247.7,22.4 247.7,21.8 247.1,21.4 L237.7,16 Z M84.9,153.1 C84.3,152.8 83.3,152.8 82.7,153.1 L72,159.3 C71.4,159.6 71.4,160.2 72,160.6 L81.4,166 C82,166.3 83,166.3 83.6,166 L94.3,159.8 C94.9,159.5 94.9,158.9 94.3,158.5 L84.9,153.1 Z M105.9,148.3 C105.3,148 104.3,148 103.7,148.3 L93,154.5 C92.4,154.8 92.4,155.4 93,155.8 L96.1,157.6 C96.7,157.9 97.7,157.9 98.3,157.6 L109,151.4 C109.6,151.1 109.6,150.5 109,150.1 L105.9,148.3 Z M114.3,136.2 C113.7,135.9 112.7,135.9 112.1,136.2 L101.4,142.4 C100.8,142.7 100.8,143.3 101.4,143.7 L110.8,149.1 C111.4,149.4 112.4,149.4 113,149.1 L123.7,142.9 C124.3,142.6 124.3,142 123.7,141.6 L114.3,136.2 Z M128.9,127.7 C128.3,127.4 127.3,127.4 126.7,127.7 L116,133.9 C115.4,134.2 115.4,134.8 116,135.2 L125.4,140.6 C126,140.9 127,140.9 127.6,140.6 L138.3,134.4 C138.9,134.1 138.9,133.5 138.3,133.1 L128.9,127.7 Z M146,117.9 C145.4,117.6 144.4,117.6 143.8,117.9 L130.9,125.3 C130.3,125.6 130.3,126.2 130.9,126.6 L140.3,132 C140.9,132.3 141.9,132.3 142.5,132 L155.4,124.6 C156,124.3 156,123.7 155.4,123.3 L146,117.9 Z M280,40.5 C279.4,40.2 278.4,40.2 277.8,40.5 L267.1,46.7 C266.5,47 266.5,47.6 267.1,48 L276.5,53.4 C277.1,53.7 278.1,53.7 278.7,53.4 L289.4,47.2 C290,46.9 290,46.3 289.4,45.9 L280,40.5 Z M265.4,48.9 C264.8,48.6 263.8,48.6 263.2,48.9 L252.5,55.1 C251.9,55.4 251.9,56 252.5,56.4 L261.9,61.8 C262.5,62.1 263.5,62.1 264.1,61.8 L274.8,55.6 C275.4,55.3 275.4,54.7 274.8,54.3 L265.4,48.9 Z M250.8,57.4 C250.2,57.1 249.2,57.1 248.6,57.4 L237.9,63.6 C237.3,63.9 237.3,64.5 237.9,64.9 L247.3,70.3 C247.9,70.6 248.9,70.6 249.5,70.3 L260.2,64.1 C260.8,63.8 260.8,63.2 260.2,62.8 L250.8,57.4 Z M236.1,65.8 C235.5,65.5 234.5,65.5 233.9,65.8 L221.1,73.2 C220.5,73.5 220.5,74.1 221.1,74.5 L230.5,79.9 C231.1,80.2 232.1,80.2 232.7,79.9 L245.5,72.5 C246.1,72.2 246.1,71.6 245.5,71.2 L236.1,65.8 Z M218.8,75.8 C218.2,75.5 217.2,75.5 216.6,75.8 L148.6,115.1 C148,115.4 148,116 148.6,116.4 L158,121.8 C158.6,122.1 159.6,122.1 160.2,121.8 L228.2,82.5 C228.8,82.2 228.8,81.6 228.2,81.2 L218.8,75.8 Z M233.7,51 C233.1,50.7 232.1,50.7 231.5,51 L220.8,57.2 C220.2,57.5 220.2,58.1 220.8,58.5 L230.2,63.9 C230.8,64.2 231.8,64.2 232.4,63.9 L243.1,57.7 C243.7,57.4 243.7,56.8 243.1,56.4 L233.7,51 Z M219.2,59.3 C218.6,59 217.6,59 217,59.3 L206.3,65.5 C205.7,65.8 205.7,66.4 206.3,66.8 L215.7,72.2 C216.3,72.5 217.3,72.5 217.9,72.2 L228.6,66 C229.2,65.7 229.2,65.1 228.6,64.7 L219.2,59.3 Z M204.7,67.7 C204.1,67.4 203.1,67.4 202.5,67.7 L191.8,73.9 C191.2,74.2 191.2,74.8 191.8,75.2 L201.2,80.6 C201.8,80.9 202.8,80.9 203.4,80.6 L214.1,74.4 C214.7,74.1 214.7,73.5 214.1,73.1 L204.7,67.7 Z M190.3,76 C189.7,75.7 188.7,75.7 188.1,76 L177.4,82.2 C176.8,82.5 176.8,83.1 177.4,83.5 L186.8,88.9 C187.4,89.2 188.4,89.2 189,88.9 L199.7,82.7 C200.3,82.4 200.3,81.8 199.7,81.4 L190.3,76 Z M175.8,84.4 C175.2,84.1 174.2,84.1 173.6,84.4 L162.9,90.6 C162.3,90.9 162.3,91.5 162.9,91.9 L172.3,97.3 C172.9,97.6 173.9,97.6 174.5,97.3 L185.2,91.1 C185.8,90.8 185.8,90.2 185.2,89.8 L175.8,84.4 Z M161.4,92.7 C160.8,92.4 159.8,92.4 159.2,92.7 L148.5,98.9 C147.9,99.2 147.9,99.8 148.5,100.2 L157.9,105.6 C158.5,105.9 159.5,105.9 160.1,105.6 L170.8,99.4 C171.4,99.1 171.4,98.5 170.8,98.1 L161.4,92.7 Z M146.9,101.1 C146.3,100.8 145.3,100.8 144.7,101.1 L134,107.3 C133.4,107.6 133.4,108.2 134,108.6 L143.4,114 C144,114.3 145,114.3 145.6,114 L156.3,107.8 C156.9,107.5 156.9,106.9 156.3,106.5 L146.9,101.1 Z M132.4,109.4 C131.8,109.1 130.8,109.1 130.2,109.4 L119.5,115.6 C118.9,115.9 118.9,116.5 119.5,116.9 L128.9,122.3 C129.5,122.6 130.5,122.6 131.1,122.3 L141.8,116.1 C142.4,115.8 142.4,115.2 141.8,114.8 L132.4,109.4 Z M118,117.7 C117.4,117.4 116.4,117.4 115.8,117.7 L105.1,123.9 C104.5,124.2 104.5,124.8 105.1,125.2 L114.5,130.6 C115.1,130.9 116.1,130.9 116.7,130.6 L127.4,124.4 C128,124.1 128,123.5 127.4,123.1 L118,117.7 Z M103.5,126.1 C102.9,125.8 101.9,125.8 101.3,126.1 L90.6,132.3 C90,132.6 90,133.2 90.6,133.6 L100,139 C100.6,139.3 101.6,139.3 102.2,139 L112.9,132.8 C113.5,132.5 113.5,131.9 112.9,131.5 L103.5,126.1 Z M265.9,32.3 C265.3,32 264.3,32 263.7,32.3 L236,48.3 C235.4,48.6 235.4,49.2 236,49.6 L245.4,55 C246,55.3 247,55.3 247.6,55 L275.3,39 C275.9,38.7 275.9,38.1 275.3,37.7 L265.9,32.3 Z M226.5,38.8 C225.9,38.5 224.9,38.5 224.3,38.8 L213.6,45 C213,45.3 213,45.9 213.6,46.3 L223,51.7 C223.6,52 224.6,52 225.2,51.7 L235.9,45.5 C236.5,45.2 236.5,44.6 235.9,44.2 L226.5,38.8 Z M212.1,47.1 C211.5,46.8 210.5,46.8 209.9,47.1 L199.2,53.3 C198.6,53.6 198.6,54.2 199.2,54.6 L208.6,60 C209.2,60.3 210.2,60.3 210.8,60 L221.5,53.8 C222.1,53.5 222.1,52.9 221.5,52.5 L212.1,47.1 Z M197.6,55.5 C197,55.2 196,55.2 195.4,55.5 L184.7,61.7 C184.1,62 184.1,62.6 184.7,63 L194.1,68.4 C194.7,68.7 195.7,68.7 196.3,68.4 L207,62.2 C207.6,61.9 207.6,61.3 207,60.9 L197.6,55.5 Z M183.1,63.9 C182.5,63.6 181.5,63.6 180.9,63.9 L170.2,70.1 C169.6,70.4 169.6,71 170.2,71.4 L179.6,76.8 C180.2,77.1 181.2,77.1 181.8,76.8 L192.5,70.6 C193.1,70.3 193.1,69.7 192.5,69.3 L183.1,63.9 Z M168.6,72.2 C168,71.9 167,71.9 166.4,72.2 L155.7,78.4 C155.1,78.7 155.1,79.3 155.7,79.7 L165.1,85.1 C165.7,85.4 166.7,85.4 167.3,85.1 L178,78.9 C178.6,78.6 178.6,78 178,77.6 L168.6,72.2 Z M154.1,80.6 C153.5,80.3 152.5,80.3 151.9,80.6 L141.2,86.8 C140.6,87.1 140.6,87.7 141.2,88.1 L150.6,93.5 C151.2,93.8 152.2,93.8 152.8,93.5 L163.5,87.3 C164.1,87 164.1,86.4 163.5,86 L154.1,80.6 Z M139.7,88.9 C139.1,88.6 138.1,88.6 137.5,88.9 L126.8,95.1 C126.2,95.4 126.2,96 126.8,96.4 L136.2,101.8 C136.8,102.1 137.8,102.1 138.4,101.8 L149.1,95.6 C149.7,95.3 149.7,94.7 149.1,94.3 L139.7,88.9 Z M125.2,97.3 C124.6,97 123.6,97 123,97.3 L112.3,103.5 C111.7,103.8 111.7,104.4 112.3,104.8 L121.7,110.2 C122.3,110.5 123.3,110.5 123.9,110.2 L134.6,104 C135.2,103.7 135.2,103.1 134.6,102.7 L125.2,97.3 Z M110.7,105.7 C110.1,105.4 109.1,105.4 108.5,105.7 L97.8,111.9 C97.2,112.2 97.2,112.8 97.8,113.2 L107.2,118.6 C107.8,118.9 108.8,118.9 109.4,118.6 L120.1,112.4 C120.7,112.1 120.7,111.5 120.1,111.1 L110.7,105.7 Z M96.2,114 C95.6,113.7 94.6,113.7 94,114 L83.3,120.2 C82.7,120.5 82.7,121.1 83.3,121.5 L92.7,126.9 C93.3,127.2 94.3,127.2 94.9,126.9 L105.6,120.7 C106.2,120.4 106.2,119.8 105.6,119.4 L96.2,114 Z M81.7,122.4 C81.1,122.1 80.1,122.1 79.5,122.4 L68.8,128.6 C68.2,128.9 68.2,129.5 68.8,129.9 L78.2,135.3 C78.8,135.6 79.8,135.6 80.4,135.3 L91.1,129.1 C91.7,128.8 91.7,128.2 91.1,127.8 L81.7,122.4 Z M251.8,24.2 C251.2,23.9 250.2,23.9 249.6,24.2 L229.4,35.9 C228.8,36.2 228.8,36.8 229.4,37.2 L238.8,42.6 C239.4,42.9 240.4,42.9 241,42.6 L261.2,30.9 C261.8,30.6 261.8,30 261.2,29.6 L251.8,24.2 Z M66.2,131.4 C65.6,131.1 64.6,131.1 64,131.4 L43.8,143 C43.2,143.3 43.2,143.9 43.8,144.3 L53.2,149.7 C53.8,150 54.8,150 55.4,149.7 L75.6,138 C76.2,137.7 76.2,137.1 75.6,136.7 L66.2,131.4 Z M88.5,134.8 C87.9,134.5 86.9,134.5 86.3,134.8 L57.9,151.2 C57.3,151.5 57.3,152.1 57.9,152.5 L67.3,157.9 C67.9,158.2 68.9,158.2 69.5,157.9 L97.9,141.5 C98.5,141.2 98.5,140.6 97.9,140.2 L88.5,134.8 Z M99.6,144.6 C99,144.3 98,144.3 97.4,144.6 L86.7,150.8 C86.1,151.1 86.1,151.7 86.7,152.1 L89.8,153.9 C90.4,154.2 91.4,154.2 92,153.9 L102.7,147.7 C103.3,147.4 103.3,146.8 102.7,146.4 L99.6,144.6 Z" id="Shape" fill="#FFFFFF"></path>
                </g>
            </g>
            <g id="img2-step3.0721c74" transform="translate(327.000000, 26.000000)">
                <line x1="729.4" y1="117.8" x2="729.4" y2="117.1" id="Path"></line>
                <path d="M13.4,219.7 L389.4,2.6 C396.6,-1.6 402.4,1.8 402.4,10.1 L402.4,242.2 C402.4,250.5 396.6,260.6 389.4,264.8 L13.4,481.9 C6.2,486.1 0.398747267,482.7 0.398747267,474.4 L0.398747267,242.2 C0.3,233.9 6.2,223.8 13.4,219.7 Z" id="Path" fill="#00D4CA" fill-rule="nonzero" opacity="0.3"></path>
                <path d="M13.4,219.7 L389.4,2.6 C396.6,-1.6 402.4,1.8 402.4,10.1 L402.4,242.2 C402.4,250.5 396.6,260.6 389.4,264.8 L13.4,481.9 C6.2,486.1 0.398747267,482.7 0.398747267,474.4 L0.398747267,242.2 C0.3,233.9 6.2,223.8 13.4,219.7 Z" id="Path" stroke="#FFFFFF" opacity="0.6"></path>
                <path d="M13.4,219.7 L389.4,2.6 C396.6,-1.6 402.4,1.8 402.4,10.1 L402.4,242.2 C402.4,250.5 396.6,260.6 389.4,264.8 L13.4,481.9 C6.2,486.1 0.398747267,482.7 0.398747267,474.4 L0.398747267,242.2 C0.3,233.9 6.2,223.8 13.4,219.7 Z" id="Path" stroke="#FFFFFF" opacity="0.6"></path>
            </g>
            <g id="img2-step4.a794419" transform="translate(340.000000, 33.000000)">
                <line x1="716.4" y1="110.8" x2="716.4" y2="110.1" id="Path"></line>
                <g id="Group" fill-rule="nonzero">
                    <path d="M13.7,219.3 L389.7,2.2 C396.9,-2 402.7,1.4 402.7,9.7 L402.7,241.8 C402.7,250.1 396.9,260.2 389.7,264.4 L13.7,481.5 C6.5,485.7 0.7,482.3 0.7,474 L0.7,241.9 C0.7,233.6 6.5,223.5 13.7,219.3 Z" id="Path" fill="url(#linearGradient-1)"></path>
                    <path d="M17.1,221 L100,173.2 L291.8,324.7 L17.1,483.2 C9.9,487.4 4.1,484 4.1,475.7 L4.1,243.6 C4.1,235.3 9.9,225.2 17.1,221 Z" id="Path" fill="url(#linearGradient-2)" opacity="0.25"></path>
                </g>
                <g id="Group" fill-rule="nonzero">
                    <path d="M13.7,219.3 L389.7,2.2 C396.9,-2 402.7,1.4 402.7,9.7 L402.7,241.8 C402.7,250.1 396.9,260.2 389.7,264.4 L13.7,481.5 C6.5,485.7 0.7,482.3 0.7,474 L0.7,241.9 C0.7,233.6 6.5,223.5 13.7,219.3 Z" id="Path" fill="url(#linearGradient-1)"></path>
                    <path d="M17.1,221 L100,173.2 L291.8,324.7 L17.1,483.2 C9.9,487.4 4.1,484 4.1,475.7 L4.1,243.6 C4.1,235.3 9.9,225.2 17.1,221 Z" id="Path" fill="url(#linearGradient-2)" opacity="0.25"></path>
                </g>
                <path d="M13.7,219.3 L389.7,2.2 C396.9,-2 402.7,1.4 402.7,9.7 L402.7,241.8 C402.7,250.1 396.9,260.2 389.7,264.4 L13.7,481.5 C6.5,485.7 0.7,482.3 0.7,474 L0.7,241.9 C0.7,233.6 6.5,223.5 13.7,219.3 Z" id="Path" fill="url(#linearGradient-3)" fill-rule="nonzero"></path>
                <path d="M17.1,221 L393,4 C400.2,-0.2 406,3.2 406,11.5 L406,243.6 C406,251.9 400.2,262 393,266.2 L17,483.3 C9.8,487.5 4,484.1 4,475.8 L4,243.6 C4.1,235.3 9.9,225.2 17.1,221 Z" id="Path" fill="url(#linearGradient-4)" fill-rule="nonzero"></path>
                <path d="M17.1,221 L100,173.2 L291.8,324.7 L17.1,483.2 C9.9,487.4 4.1,484 4.1,475.7 L4.1,243.6 C4.1,235.3 9.9,225.2 17.1,221 Z" id="Path" fill="url(#linearGradient-2)" fill-rule="nonzero" opacity="0.25"></path>
                <path d="M205.1,374.7 L17.1,483.2 C9.9,487.4 4.1,484 4.1,475.7 L4.1,243.6 C4.1,235.3 9.9,225.2 17.1,221 L205.1,112.5 L205.1,374.7 Z" id="Path" fill="#212762" fill-rule="nonzero" opacity="0.5"></path>
                <g id="Group" opacity="0.7" transform="translate(3.000000, 4.000000)" fill="#FFFFFF" fill-rule="nonzero">
                    <g id="Path">
                        <path d="M390,0 L90,173.8 L15,217 C11.9,218.7 9.3,221.2 7.1,224.1 C5,227 3.3,230.2 2.4,233.6 C1.9,235.3 1.6,237.1 1.5,238.8 C1.4,240.6 1.5,242.4 1.5,244.2 L1.5,255 L1.4,298.3 L1.1,471.6 L0.8,298.3 L0.7,255 L0.7,244.2 C0.7,242.4 0.7,240.6 0.7,238.8 C0.8,237 1.1,235.1 1.6,233.4 C2.6,229.9 4.3,226.6 6.4,223.6 C7.5,222.1 8.7,220.8 10,219.5 C11.3,218.2 12.9,217.2 14.4,216.3 L89.4,172.9 L390,0 Z"></path>
                    </g>
                </g>
            </g>
            <g id="img2-step5-1.3a0bd3b" transform="translate(362.000000, 142.000000)">
                <line x1="694.4" y1="1.8" x2="694.4" y2="1.1" id="Path"></line>
                <path d="M150.5,62.2 L2.3,147.8 C1.3,148.4 0.4,147.8 0.4,146.4 L0.4,146.4 C0.4,145 1.2,143.4 2.3,142.8 L150.5,57.2 C151.5,56.6 152.4,57.2 152.4,58.6 L152.4,58.6 C152.4,60 151.5,61.6 150.5,62.2 Z" id="Path" fill="#277CFF" fill-rule="nonzero"></path>
                <path d="M121.5,97.8 L16.7,158.3 C15.7,158.9 14.8,158.3 14.8,156.9 L14.8,156.9 C14.8,155.5 15.6,153.9 16.7,153.3 L121.5,92.8 C122.5,92.2 123.4,92.8 123.4,94.2 L123.4,94.2 C123.4,95.6 122.6,97.2 121.5,97.8 Z" id="Path" fill="#B47FD5" fill-rule="nonzero"></path>
                <path d="M78.1,141.8 L16.7,177.2 C15.7,177.8 14.8,177.2 14.8,175.8 L14.8,175.8 C14.8,174.4 15.6,172.8 16.7,172.2 L78.1,136.8 C79.1,136.2 80,136.8 80,138.2 L80,138.2 C80,139.6 79.1,141.2 78.1,141.8 Z" id="Path" fill="#86B36F" fill-rule="nonzero"></path>
            </g>
            <g id="img2-step5-2.6719e26" transform="translate(376.000000, 142.000000)">
                <line x1="680.4" y1="1.8" x2="680.4" y2="1.1" id="Path"></line>
                <path d="M85.8,148.1 L2.7,196.1 C1.7,196.7 0.8,196.1 0.8,194.7 L0.8,194.7 C0.8,193.3 1.6,191.7 2.7,191.1 L85.8,143.1 C86.8,142.5 87.7,143.1 87.7,144.5 L87.7,144.5 C87.7,145.9 86.9,147.5 85.8,148.1 Z" id="Path" fill="#B47FD5" fill-rule="nonzero"></path>
                <path d="M150.9,129.4 L17.2,206.6 C16.2,207.2 15.3,206.6 15.3,205.2 L15.3,205.2 C15.3,203.8 16.1,202.2 17.2,201.6 L150.9,124.4 C151.9,123.8 152.8,124.4 152.8,125.8 L152.8,125.8 C152.8,127.2 152,128.8 150.9,129.4 Z" id="Path" fill="#277CFF" fill-rule="nonzero"></path>
                <path d="M85.8,204.8 L38.9,231.9 C37.9,232.5 37,231.9 37,230.5 L37,230.5 C37,229.1 37.8,227.5 38.9,226.9 L85.8,199.8 C86.8,199.2 87.7,199.8 87.7,201.2 L87.7,201.2 C87.7,202.6 86.9,204.2 85.8,204.8 Z" id="Path" fill="#B47FD5" fill-rule="nonzero"></path>
            </g>
            <g id="img2-step5-3.353b8b2" transform="translate(362.000000, 142.000000)">
                <line x1="694.4" y1="1.8" x2="694.4" y2="1.1" id="Path"></line>
                <path d="M121.5,211.1 L2.3,280 C1.3,280.6 0.4,280 0.4,278.6 L0.4,278.6 C0.4,277.2 1.2,275.6 2.3,275 L121.6,206.1 C122.6,205.5 123.5,206.1 123.5,207.5 L123.5,207.5 C123.4,208.9 122.6,210.5 121.5,211.1 Z" id="Path" fill="#277CFF" fill-rule="nonzero"></path>
                <path d="M150.5,213.3 L16.8,290.5 C15.8,291.1 14.9,290.5 14.9,289.1 L14.9,289.1 C14.9,287.7 15.7,286.1 16.8,285.5 L150.5,208.3 C151.5,207.7 152.4,208.3 152.4,209.7 L152.4,209.7 C152.4,211.1 151.5,212.7 150.5,213.3 Z" id="Path" fill="#86B36F" fill-rule="nonzero"></path>
                <path d="M150.5,232.2 L16.8,309.4 C15.8,310 14.9,309.4 14.9,308 L14.9,308 C14.9,306.6 15.7,305 16.8,304.4 L150.5,227.2 C151.5,226.6 152.4,227.2 152.4,228.6 L152.4,228.6 C152.4,230 151.5,231.6 150.5,232.2 Z" id="Path" fill="#93A2BF" fill-rule="nonzero"></path>
                <path d="M164.9,242.7 L146.9,253.1 C145.9,253.7 145,253.1 145,251.7 L145,251.7 C145,250.3 145.8,248.7 146.9,248.1 L164.9,237.7 C165.9,237.1 166.8,237.7 166.8,239.1 L166.8,239.1 C166.8,240.5 166,242.1 164.9,242.7 Z" id="Path" fill="#5CA6E7" fill-rule="nonzero"></path>
            </g>
            <g id="img2-step6.786e5ce" transform="translate(557.000000, 66.000000)">
                <line x1="499.4" y1="77.8" x2="499.4" y2="77.1" id="Path"></line>
                <path d="M113.5,138.5 L163.3,109.8 C167.3,107.5 170.5,101.3 170.5,96 L170.5,6.4 C170.5,1.1 167.3,-1.4 163.3,0.9 L113.5,29.6 C109.5,31.9 106.3,38.1 106.3,43.4 L106.3,133 C106.2,138.3 109.5,140.8 113.5,138.5 Z" id="Path" fill="#0449C5" fill-rule="nonzero" opacity="0.3"></path>
                <path d="M14,295.6 L80,257.5 C81.6,256.6 82.9,254.1 82.9,252 L82.9,244 C82.9,241.9 81.6,240.9 80,241.8 L14,279.9 C12.4,280.8 11.1,283.3 11.1,285.4 L11.1,293.4 C11.1,295.6 12.4,296.5 14,295.6 Z" id="Path" fill="#F5F5F7" fill-rule="nonzero"></path>
                <path d="M12.2,223.4 L82.4,182.9 C83.4,182.3 84.3,180.7 84.3,179.3 L84.3,179.3 C84.3,177.9 83.5,177.3 82.4,177.9 L12.2,218.4 C11.2,219 10.3,220.6 10.3,222 L10.3,222 C10.3,223.4 11.2,224 12.2,223.4 Z" id="Path" fill="#0449C5" fill-rule="nonzero" opacity="0.3"></path>
                <path d="M12.2,234.3 L82.4,193.8 C83.4,193.2 84.3,191.6 84.3,190.2 L84.3,190.2 C84.3,188.8 83.5,188.2 82.4,188.8 L12.2,229.3 C11.2,229.9 10.3,231.5 10.3,232.9 L10.3,232.9 C10.3,234.2 11.2,234.9 12.2,234.3 Z" id="Path" fill="#0449C5" fill-rule="nonzero" opacity="0.3"></path>
                <path d="M12.2,245.1 L82.4,204.6 C83.4,204 84.3,202.4 84.3,201 L84.3,201 C84.3,199.6 83.5,199 82.4,199.6 L12.2,240.1 C11.2,240.7 10.3,242.3 10.3,243.7 L10.3,243.7 C10.3,245.1 11.2,245.7 12.2,245.1 Z" id="Path" fill="#0449C5" fill-rule="nonzero" opacity="0.3"></path>
                <path d="M12.2,256 L82.4,215.5 C83.4,214.9 84.3,213.3 84.3,211.9 L84.3,211.9 C84.3,210.5 83.5,209.9 82.4,210.5 L12.2,251 C11.2,251.6 10.3,253.2 10.3,254.6 L10.3,254.6 C10.3,256 11.2,256.6 12.2,256 Z" id="Path" fill="#0449C5" fill-rule="nonzero" opacity="0.3"></path>
                <path d="M12.2,266.9 L82.4,226.4 C83.4,225.8 84.3,224.2 84.3,222.8 L84.3,222.8 C84.3,221.4 83.5,220.8 82.4,221.4 L12.2,261.9 C11.2,262.5 10.3,264.1 10.3,265.5 L10.3,265.5 C10.3,266.8 11.2,267.5 12.2,266.9 Z" id="Path" fill="#0449C5" fill-rule="nonzero" opacity="0.3"></path>
                <path d="M113.3,213.5 L163.1,184.8 C167.1,182.5 170.3,176.3 170.3,171 L170.3,123.2 C170.3,117.9 167.1,115.4 163.1,117.7 L113.3,146.4 C109.3,148.7 106.1,154.9 106.1,160.2 L106.1,208 C106.1,213.3 109.3,215.8 113.3,213.5 Z" id="Path" fill="#0449C5" fill-rule="nonzero" opacity="0.3"></path>
                <g id="Group" opacity="0.3" transform="translate(17.000000, 71.000000)" fill="#0449C5" fill-rule="nonzero">
                    <path d="M14.4,111.4 L14.4,107.6 C22.2,103.1 26.1,97 26.1,89.3 L26.1,31.6 C26.1,28.8 24.3,28.4 20.7,30.5 C10.1,36.6 4.3,46.6 3.4,60.5 L0.5,61.7 L0.5,35.6 C2.2,34.9 3.8,34.2 5.4,33.4 C7,32.6 8.5,31.8 10.1,31 L51.8,6.9 C53.2,6.1 54.6,5.2 56.1,4.2 C57.6,3.2 59.2,2.1 60.8,0.9 L63.7,25.9 L60.3,28.8 C58.9,22.5 56.7,18.4 53.7,16.5 C50.7,14.7 46.9,15.1 42.1,17.9 C38.6,19.9 36.8,22.5 36.8,25.6 L36.8,83.3 C36.8,91 40.7,92.6 48.4,88.1 L48.4,91.9 L14.4,111.4 Z" id="Path"></path>
                </g>
                <path d="M7.7,313.3 L86.7,267.7 C90.7,265.4 93.9,259.2 93.9,253.9 L93.9,54.2 C93.9,48.9 90.7,46.4 86.7,48.7 L7.7,94.3 C3.7,96.6 0.5,102.8 0.5,108.1 L0.5,307.7 C0.5,313.1 3.7,315.6 7.7,313.3 Z" id="Path" stroke="#FFFFFF" opacity="0.5" stroke-dasharray="4,3"></path>
                <path d="M113.5,253.8 L163.3,225.1 C167.3,222.8 170.5,216.6 170.5,211.3 L170.5,200.3 C170.5,195 167.3,192.5 163.3,194.8 L113.5,223.5 C109.5,225.8 106.3,232 106.3,237.3 L106.3,248.3 C106.2,253.6 109.5,256.1 113.5,253.8 Z" id="Path" stroke="#FFFFFF" opacity="0.5" stroke-dasharray="4,3"></path>
            </g>
            <g id="img2-step7.1beaf2e" transform="translate(606.000000, 82.000000)">
                <line x1="450.4" y1="61.8" x2="450.4" y2="61.1" id="Path"></line>
                <g id="Group" transform="translate(61.000000, 100.000000)" fill-rule="nonzero">
                    <path d="M7.5,97.5 L57.3,68.8 C61.3,66.5 64.5,60.3 64.5,55 L64.5,7.2 C64.5,1.9 61.3,-0.6 57.3,1.7 L7.5,30.4 C3.5,32.7 0.3,38.9 0.3,44.2 L0.3,92 C0.3,97.3 3.5,99.8 7.5,97.5 Z" id="Path" fill="#C9C9DC"></path>
                    <path d="M10,98.3 L59.8,69.6 C63.8,67.3 67,61.1 67,55.8 L67,8 C67,2.7 63.8,0.2 59.8,2.5 L10,31.2 C6,33.5 2.8,39.7 2.8,45 L2.8,92.8 C2.8,98.2 6,100.6 10,98.3 Z" id="Path" fill="#FFFFFF"></path>
                </g>
                <g id="Group" transform="translate(74.000000, 125.000000)" fill-rule="nonzero">
                    <path d="M4.9,40.4 L25.9,22.6 L17.7,47.8 L20.2,49.1 L18.4,53.3 L10.9,49.2 L10.9,49.2 C7.9,47.6 5.9,44.7 4.9,40.4 Z" id="Path" fill="#FDB960"></path>
                    <path d="M33.4,26.6 L12.4,44.4 C13.9,51.2 18.2,54.7 24.3,54.5 L33.4,26.6 Z" id="Path" fill="#FFDE9A"></path>
                    <polygon id="Path" fill="#FFD575" points="33.4 26.6 25.9 22.6 4.9 40.4 12.4 44.4"></polygon>
                    <path d="M22.5,20.7 L23.3,4.9 L15.8,0.9 C5,11.2 -1.1,27.2 1.5,38.5 L9,42.5 L22.5,20.7 Z" id="Path" fill="#CE573C"></path>
                    <path d="M30,24.7 L23.3,4.9 C12.5,15.2 6.4,31.2 9,42.5 L30,24.7 Z" id="Path" fill="#FF6F47"></path>
                </g>
                <g id="Group" transform="translate(82.000000, 0.000000)" fill-rule="nonzero">
                    <path d="M7.5,139.2 L57.3,110.5 C61.3,108.2 64.5,102 64.5,96.7 L64.5,7 C64.5,1.7 61.3,-0.8 57.3,1.5 L7.5,30.2 C3.5,32.5 0.3,38.7 0.3,44 L0.3,133.6 C0.3,139 3.5,141.5 7.5,139.2 Z" id="Path" fill="#C9C9DC"></path>
                    <path d="M10,140 L59.8,111.3 C63.8,109 67,102.8 67,97.5 L67,7.9 C67,2.6 63.8,0.1 59.8,2.4 L10,31.2 C6,33.5 2.8,39.7 2.8,45 L2.8,134.6 C2.8,139.9 6,142.3 10,140 Z" id="Path" fill="#F5F5F7"></path>
                    <g transform="translate(21.000000, 35.466670)" fill="#FFFFFF" id="Shape">
                        <path d="M0.6,25.2 C0.6,33.7 6.6,37.1 13.9,32.9 C21.2,28.7 27.2,18.3 27.2,9.8 C27.2,1.3 21.2,-2.1 13.9,2.1 C6.6,6.4 0.6,16.7 0.6,25.2 Z M18.7,10.4 C18.7,13.4 16.6,17.1 13.9,18.6 C11.3,20.1 9.1,18.9 9.1,15.9 C9.1,12.9 11.2,9.2 13.9,7.7 C16.6,6.1 18.7,7.4 18.7,10.4 Z M22.5,21.3 C20.4,25.2 17.4,28.7 13.9,30.7 C10.5,32.7 7.4,32.7 5.3,31.2 C5.3,28.2 7.5,24.5 10.1,23 L17.7,18.6 C20.3,17.1 22.5,18.3 22.5,21.3 Z"></path>
                    </g>
                    <g transform="translate(14.000000, 71.000000)" fill="#BBD3E5" id="Path">
                        <g>
                            <path d="M8.6,29.5 L3.1,32.7 C1.8,33.5 0.7,32.7 0.7,30.9 L0.7,25.6 C0.7,23.8 1.8,21.7 3.1,20.9 L8.6,17.7 C9.9,16.9 11,17.7 11,19.5 L11,24.8 C11,26.6 9.9,28.7 8.6,29.5 Z"></path>
                            <path d="M40.9,3.5 L16.3,17.7 C15.9,17.9 15.6,17.7 15.6,17.1 L15.6,16.1 C15.6,15.6 15.9,14.9 16.3,14.7 L40.9,0.5 C41.3,0.3 41.6,0.5 41.6,1.1 L41.6,2.1 C41.6,2.6 41.3,3.2 40.9,3.5 Z"></path>
                            <path d="M27.8,16.9 L16.2,23.6 C15.8,23.8 15.5,23.6 15.5,23 L15.5,22 C15.5,21.5 15.8,20.8 16.2,20.6 L27.8,13.9 C28.2,13.7 28.5,13.9 28.5,14.5 L28.5,15.5 C28.6,16 28.2,16.6 27.8,16.9 Z"></path>
                        </g>
                        <g transform="translate(0.000000, 17.000000)">
                            <path d="M8.6,29.7 L3.1,32.9 C1.8,33.7 0.7,32.9 0.7,31.1 L0.7,25.8 C0.7,24 1.8,21.9 3.1,21.1 L8.6,17.9 C9.9,17.1 11,17.9 11,19.7 L11,25 C11,26.8 9.9,28.9 8.6,29.7 Z"></path>
                            <path d="M40.9,3.7 L16.3,17.9 C15.9,18.1 15.6,17.9 15.6,17.3 L15.6,16.3 C15.6,15.8 15.9,15.1 16.3,14.9 L40.9,0.7 C41.3,0.5 41.6,0.7 41.6,1.3 L41.6,2.3 C41.6,2.8 41.3,3.4 40.9,3.7 Z"></path>
                            <path d="M27.8,17.1 L16.2,23.8 C15.8,24 15.5,23.8 15.5,23.2 L15.5,22.2 C15.5,21.7 15.8,21 16.2,20.8 L27.8,14.1 C28.2,13.9 28.5,14.1 28.5,14.7 L28.5,15.7 C28.6,16.2 28.2,16.8 27.8,17.1 Z"></path>
                        </g>
                    </g>
                    <path d="M39.7,45.8 C39.7,48.8 37.6,52.5 34.9,54 C32.3,55.5 30.1,54.3 30.1,51.3 C30.1,48.3 32.2,44.6 34.9,43.1 C37.6,41.6 39.7,42.8 39.7,45.8 Z M43.5,56.8 C41.4,60.7 38.4,64.2 34.9,66.2 C31.5,68.2 28.4,68.2 26.3,66.7 C26.3,63.7 28.5,60 31.1,58.5 L38.7,54.1 C41.3,52.6 43.5,53.8 43.5,56.8 Z" id="Shape" fill="#BBD3E5"></path>
                </g>
                <g id="Group" transform="translate(0.000000, 72.000000)" fill-rule="nonzero">
                    <path d="M5.2,33.1 C6.8,32.3 8.3,31.5 9.9,30.7 L51.6,6.6 C53,5.8 54.4,4.9 55.9,3.9 C57.4,2.9 59,1.8 60.6,0.6 L63.1,2.3 L61.1,4.9 L63.5,25.5 L63.3,25.7 L64.1,26.1 L62.7,30.2 L60.2,28.5 C58.8,22.2 56.6,18.1 53.6,16.2 C50.6,14.4 46.8,14.8 42,17.6 C38.5,19.6 36.7,22.2 36.7,25.3 L36.7,83 C36.7,90 40,92 46.4,88.8 L48.2,87.8 L50.7,89.5 L48.2,91.6 L16.7,109.8 L16.7,112.9 L14.2,111.2 L14.2,107.4 C22,102.9 25.9,96.8 25.9,89.1 L25.9,31.4 C25.9,28.6 24.1,28.2 20.5,30.3 C9.9,36.4 4.1,46.4 3.2,60.3 L2.8,60.5 L2.8,63.2 L0.3,61.5 L0.3,56.7 L0.3,35.4 C2,34.6 3.6,33.9 5.2,33.1 Z" id="Path" fill="#C9C9DC"></path>
                    <path d="M16.7,112.8 L16.7,109 C24.5,104.5 28.4,98.4 28.4,90.7 L28.4,33 C28.4,30.2 26.6,29.8 23,31.9 C12.4,38 6.6,48 5.7,61.9 L2.8,63.1 L2.8,37 C4.5,36.3 6.1,35.6 7.7,34.8 C9.3,34 10.8,33.2 12.4,32.4 L54.1,8.3 C55.5,7.5 56.9,6.6 58.4,5.6 C59.9,4.6 61.5,3.5 63.1,2.3 L66,27.3 L62.6,30.2 C61.2,23.9 59,19.8 56,17.9 C53,16.1 49.2,16.5 44.4,19.3 C40.9,21.3 39.1,23.9 39.1,27 L39.1,84.7 C39.1,92.4 43,94 50.7,89.5 L50.7,93.3 L16.7,112.8 Z" id="Path" fill="#FFFFFF"></path>
                </g>
            </g>
            <g id="img2-step8.604cb7c" transform="translate(573.000000, 136.000000)">
                <line x1="483.4" y1="7.8" x2="483.4" y2="7.1" id="Path"></line>
                <line x1="93.6" y1="18.6" x2="61.8" y2="1.8" id="Path" stroke="#FFFFFF" stroke-width="0.5" stroke-dasharray="2,2"></line>
                <line x1="81.2" y1="105.7" x2="49.5" y2="89" id="Path" stroke="#FFFFFF" stroke-width="0.5" stroke-dasharray="2,2"></line>
                <g id="Group" transform="translate(1.000000, 36.000000)" stroke="#FFFFFF" stroke-width="0.5">
                    <line x1="32.3" y1="17.3" x2="31.4" y2="16.9" id="Path"></line>
                    <line x1="29.7" y1="15.9" x2="2.3" y2="1.5" id="Path" stroke-dasharray="1.9932,1.9932"></line>
                    <line x1="1.5" y1="1.1" x2="0.6" y2="0.6" id="Path"></line>
                </g>
                <line x1="47.2" y1="125.4" x2="15.4" y2="108.7" id="Path" stroke="#FFFFFF" stroke-width="0.5" stroke-dasharray="2,2"></line>
                <line x1="33.3" y1="79.5" x2="1.6" y2="62.8" id="Path" stroke="#FFFFFF" stroke-width="0.5" stroke-dasharray="2,2"></line>
                <circle id="Oval" fill="#FFFFFF" fill-rule="nonzero" cx="93.6" cy="18.6" r="1.3"></circle>
                <circle id="Oval" fill="#FFFFFF" fill-rule="nonzero" cx="61.8" cy="1.8" r="1.3"></circle>
                <circle id="Oval" fill="#FFFFFF" fill-rule="nonzero" cx="1.6" cy="36.6" r="1.3"></circle>
                <circle id="Oval" fill="#FFFFFF" fill-rule="nonzero" cx="33.3" cy="53.4" r="1.3"></circle>
                <circle id="Oval" fill="#FFFFFF" fill-rule="nonzero" cx="33.3" cy="79.5" r="1.3"></circle>
                <circle id="Oval" fill="#FFFFFF" fill-rule="nonzero" cx="1.6" cy="62.8" r="1.3"></circle>
                <circle id="Oval" fill="#FFFFFF" fill-rule="nonzero" cx="49.5" cy="89" r="1.3"></circle>
                <circle id="Oval" fill="#FFFFFF" fill-rule="nonzero" cx="81.2" cy="105.7" r="1.3"></circle>
                <circle id="Oval" fill="#FFFFFF" fill-rule="nonzero" cx="15.4" cy="108.7" r="1.3"></circle>
                <circle id="Oval" fill="#FFFFFF" fill-rule="nonzero" cx="47.2" cy="125.4" r="1.3"></circle>
            </g>
        </g>
    </g>
</svg>