<?xml version="1.0" encoding="UTF-8"?>
<svg width="212px" height="256px" viewBox="0 0 212 256" version="1.1" xmlns="http://www.w3.org/2000/svg" xmlns:xlink="http://www.w3.org/1999/xlink">
    <title>LOGO TTGR.CO.IR</title>
    <g id="Page-1" stroke="none" stroke-width="1" fill="none" fill-rule="evenodd">
        <g id="Group" transform="translate(2.000000, 2.000000)">
            <rect id="Rectangle" stroke="#DEE0E4" stroke-width="4" fill="#FFFFFF" x="4" y="212" width="200" height="36"></rect>
            <rect id="Rectangle-Copy" stroke="#000000" stroke-width="4" x="0" y="208" width="208" height="44"></rect>
            <rect id="Rectangle" stroke="#000000" stroke-width="2" fill="#FFFFFF" x="-1" y="-1" width="210" height="210"></rect>
            <line x1="108" y1="4" x2="108" y2="204" id="Path" stroke="#DEE0E4" stroke-width="4" transform="translate(108.000000, 104.000000) scale(1, -1) translate(-108.000000, -104.000000) "></line>
            <line x1="4" y1="108" x2="204" y2="108" id="Path-Copy" stroke="#DEE0E4" stroke-width="4" transform="translate(104.000000, 108.000000) scale(1, -1) translate(-104.000000, -108.000000) "></line>
            <line x1="6" y1="136" x2="108" y2="136" id="Path-Copy-5" stroke="#DEE0E4" stroke-width="4" transform="translate(57.000000, 136.000000) scale(1, -1) translate(-57.000000, -136.000000) "></line>
            <circle id="Oval-Copy" stroke="#000000" stroke-width="4" cx="104" cy="104" r="102"></circle>
            <line x1="106" y1="136" x2="208" y2="136" id="Path-Copy-2" stroke="#DEE0E4" stroke-width="4" transform="translate(157.000000, 136.000000) scale(1, -1) translate(-157.000000, -136.000000) "></line>
            <line x1="204" y1="106" x2="204" y2="204" id="Path-Copy-4" stroke="#DEE0E4" stroke-width="4" transform="translate(204.000000, 155.000000) scale(1, -1) translate(-204.000000, -155.000000) "></line>
            <line x1="106" y1="204" x2="208" y2="204" id="Path-Copy-3" stroke="#DEE0E4" stroke-width="4" transform="translate(157.000000, 204.000000) scale(1, -1) translate(-157.000000, -204.000000) "></line>
            <rect id="Rectangle-Copy-2" stroke="#000000" stroke-width="2" x="105" y="105" width="102" height="102"></rect>
            <rect id="Rectangle" stroke="#000000" stroke-width="2" x="1" y="105" width="102" height="102"></rect>
            <rect id="Rectangle-Copy-4" stroke="#000000" stroke-width="2" x="105" y="1" width="102" height="102"></rect>
            <rect id="Rectangle-Copy-3" stroke="#000000" stroke-width="2" x="1" y="1" width="102" height="102"></rect>
            <rect id="Rectangle" stroke="#FFFFFF" stroke-width="2" fill="#FFFFFF" x="111" y="139" width="90" height="62"></rect>
            <path d="M106,204 C151.723875,204 190.489055,175.652585 203.940976,136.421321" id="Path" stroke="#DEE0E4" stroke-width="4"></path>
            <rect id="Rectangle-Copy-6" stroke="#FFFFFF" stroke-width="2" fill="#FFFFFF" x="111" y="111" width="90" height="22"></rect>
            <polygon id="Path" fill="#000000" fill-rule="nonzero" points="30.452 242 30.452 223.585 37.1655 223.585 37.1655 221.2215 20.8965 221.2215 20.8965 223.585 27.639 223.585 27.639 242"></polygon>
            <polygon id="Path" fill="#000000" fill-rule="nonzero" points="48.962 242 48.962 223.585 55.6755 223.585 55.6755 221.2215 39.4065 221.2215 39.4065 223.585 46.149 223.585 46.149 242"></polygon>
            <path d="M67.675,242.232 C68.5353333,242.232 69.3328333,242.186083 70.0675,242.09425 C70.8021667,242.002417 71.4909167,241.86225 72.13375,241.67375 C72.7765833,241.48525 73.38075,241.250833 73.94625,240.9705 C74.51175,240.690167 75.0555,240.3615 75.5775,239.9845 L75.5775,239.9845 L75.5775,232.0095 L69.1975,232.0095 L69.1975,233.6045 C69.1975,233.759167 69.2530833,233.889667 69.36425,233.996 C69.4754167,234.102333 69.6228333,234.1555 69.8065,234.1555 L69.8065,234.1555 L73.0255,234.1555 L73.0255,238.7375 C72.6581667,238.930833 72.2908333,239.102417 71.9235,239.25225 C71.5561667,239.402083 71.1646667,239.530167 70.749,239.6365 C70.3333333,239.742833 69.8910833,239.822583 69.42225,239.87575 C68.9534167,239.928917 68.4386667,239.9555 67.878,239.9555 C66.7566667,239.9555 65.732,239.767 64.804,239.39 C63.876,239.013 63.0736667,238.466833 62.397,237.7515 C61.7203333,237.036167 61.1959167,236.16375 60.82375,235.13425 C60.4515833,234.10475 60.2655,232.932667 60.2655,231.618 C60.2655,230.361333 60.4443333,229.227917 60.802,228.21775 C61.1596667,227.207583 61.672,226.34725 62.339,225.63675 C63.006,224.92625 63.8131667,224.380083 64.7605,223.99825 C65.7078333,223.616417 66.7663333,223.4255 67.936,223.4255 C68.7383333,223.4255 69.4319167,223.488333 70.01675,223.614 C70.6015833,223.739667 71.1090833,223.891917 71.53925,224.07075 C71.9694167,224.249583 72.3343333,224.435667 72.634,224.629 C72.9336667,224.822333 73.2043333,224.986667 73.446,225.122 C73.6296667,225.228333 73.7988333,225.2815 73.9535,225.2815 C74.2145,225.2815 74.4271667,225.151 74.5915,224.89 L74.5915,224.89 L75.389,223.614 C74.9443333,223.208 74.4658333,222.843083 73.9535,222.51925 C73.4411667,222.195417 72.8829167,221.919917 72.27875,221.69275 C71.6745833,221.465583 71.0196667,221.291583 70.314,221.17075 C69.6083333,221.049917 68.8446667,220.9895 68.023,220.9895 C66.399,220.9895 64.9320833,221.245667 63.62225,221.758 C62.3124167,222.270333 61.1959167,222.992917 60.27275,223.92575 C59.3495833,224.858583 58.6390833,225.9775 58.14125,227.2825 C57.6434167,228.5875 57.3945,230.032667 57.3945,231.618 C57.3945,233.184 57.64825,234.6195 58.15575,235.9245 C58.66325,237.2295 59.3713333,238.348417 60.28,239.28125 C61.1886667,240.214083 62.2713333,240.939083 63.528,241.45625 C64.7846667,241.973417 66.167,242.232 67.675,242.232 Z" id="Path" fill="#000000" fill-rule="nonzero"></path>
            <path d="M84.387,242 L84.387,233.329 L86.5185,233.329 C86.9051667,233.329 87.1951667,233.37975 87.3885,233.48125 C87.5818333,233.58275 87.7606667,233.7495 87.925,233.9815 L87.925,233.9815 L93.319,241.4055 C93.5606667,241.801833 93.9376667,242 94.45,242 L94.45,242 L96.944,242 L90.883,233.7495 C90.6123333,233.362833 90.303,233.068 89.955,232.865 C90.7573333,232.681333 91.4750833,232.410667 92.10825,232.053 C92.7414167,231.695333 93.2779167,231.26275 93.71775,230.75525 C94.1575833,230.24775 94.4935,229.675 94.7255,229.037 C94.9575,228.399 95.0735,227.712667 95.0735,226.978 C95.0735,226.098333 94.9236667,225.30325 94.624,224.59275 C94.3243333,223.88225 93.86275,223.275667 93.23925,222.773 C92.61575,222.270333 91.8255,221.886083 90.8685,221.62025 C89.9115,221.354417 88.7756667,221.2215 87.461,221.2215 L87.461,221.2215 L81.5885,221.2215 L81.5885,242 L84.387,242 Z" id="Path" fill="#000000" fill-rule="nonzero"></path>
            <path d="M87.3305,231.2845 L84.387,231.2845 L84.387,223.44 L87.461,223.44 C89.0753333,223.44 90.2909167,223.754167 91.10775,224.3825 C91.9245833,225.010833 92.333,225.943667 92.333,227.181 C92.333,227.79 92.2266667,228.345833 92.014,228.8485 C91.8013333,229.351167 91.48475,229.78375 91.06425,230.14625 C90.64375,230.50875 90.12175,230.789083 89.49825,230.98725 C88.87475,231.185417 88.1521667,231.2845 87.3305,231.2845 L87.3305,231.2845 Z" id="Path" fill="#000000" fill-rule="nonzero"></path>
            <path d="M101.9255,242.2175 C102.176833,242.2175 102.413667,242.171583 102.636,242.07975 C102.858333,241.987917 103.051667,241.859833 103.216,241.6955 C103.380333,241.531167 103.508417,241.34025 103.60025,241.12275 C103.692083,240.90525 103.738,240.666 103.738,240.405 C103.738,240.153667 103.692083,239.916833 103.60025,239.6945 C103.508417,239.472167 103.380333,239.278833 103.216,239.1145 C103.051667,238.950167 102.858333,238.819667 102.636,238.723 C102.413667,238.626333 102.176833,238.578 101.9255,238.578 C101.674167,238.578 101.437333,238.626333 101.215,238.723 C100.992667,238.819667 100.80175,238.950167 100.64225,239.1145 C100.48275,239.278833 100.357083,239.472167 100.26525,239.6945 C100.173417,239.916833 100.1275,240.153667 100.1275,240.405 C100.1275,240.666 100.173417,240.90525 100.26525,241.12275 C100.357083,241.34025 100.48275,241.531167 100.64225,241.6955 C100.80175,241.859833 100.992667,241.987917 101.215,242.07975 C101.437333,242.171583 101.674167,242.2175 101.9255,242.2175 Z" id="Path" fill="#000000" fill-rule="nonzero"></path>
            <path d="M117.9035,242.2425 C119.6145,242.2425 121.076583,241.967 122.28975,241.416 C123.502917,240.865 124.534833,240.0965 125.3855,239.1105 L125.3855,239.1105 L124.2835,237.907 C124.157833,237.781333 124.017667,237.7185 123.863,237.7185 C123.708333,237.7185 123.548833,237.791 123.3845,237.936 C123.017167,238.264667 122.65225,238.547417 122.28975,238.78425 C121.92725,239.021083 121.53575,239.216833 121.11525,239.3715 C120.69475,239.526167 120.238,239.63975 119.745,239.71225 C119.252,239.78475 118.696167,239.821 118.0775,239.821 C117.0625,239.821 116.115167,239.637333 115.2355,239.27 C114.355833,238.902667 113.594583,238.368583 112.95175,237.66775 C112.308917,236.966917 111.801417,236.109 111.42925,235.094 C111.057083,234.079 110.871,232.923833 110.871,231.6285 C110.871,230.371833 111.057083,229.236 111.42925,228.221 C111.801417,227.206 112.321,226.345667 112.988,225.64 C113.655,224.934333 114.450083,224.390583 115.37325,224.00875 C116.296417,223.626917 117.313833,223.436 118.4255,223.436 C119.044167,223.436 119.590333,223.481917 120.064,223.57375 C120.537667,223.665583 120.953333,223.779167 121.311,223.9145 C121.668667,224.049833 121.978,224.194833 122.239,224.3495 C122.5,224.504167 122.727167,224.649167 122.9205,224.7845 C123.113833,224.919833 123.280583,225.033417 123.42075,225.12525 C123.560917,225.217083 123.693833,225.263 123.8195,225.263 C123.983833,225.263 124.1095,225.231583 124.1965,225.16875 C124.2835,225.105917 124.360833,225.026167 124.4285,224.9295 L124.4285,224.9295 L125.342,223.639 C124.481667,222.827 123.498083,222.184167 122.39125,221.7105 C121.284417,221.236833 119.967333,221 118.44,221 C116.893333,221 115.479583,221.258583 114.19875,221.77575 C112.917917,222.292917 111.818333,223.020333 110.9,223.958 C109.981667,224.895667 109.26875,226.017 108.76125,227.322 C108.25375,228.627 108,230.0625 108,231.6285 C108,233.1945 108.236833,234.63 108.7105,235.935 C109.184167,237.24 109.851167,238.358917 110.7115,239.29175 C111.571833,240.224583 112.611,240.949583 113.829,241.46675 C115.047,241.983917 116.405167,242.2425 117.9035,242.2425 Z" id="Path" fill="#000000" fill-rule="nonzero"></path>
            <path d="M141.237,242.228 C142.764333,242.228 144.15875,241.969417 145.42025,241.45225 C146.68175,240.935083 147.762,240.207667 148.661,239.27 C149.56,238.332333 150.256,237.213417 150.749,235.91325 C151.242,234.613083 151.4885,233.184833 151.4885,231.6285 C151.4885,230.072167 151.242,228.643917 150.749,227.34375 C150.256,226.043583 149.56,224.92225 148.661,223.97975 C147.762,223.03725 146.68175,222.305 145.42025,221.783 C144.15875,221.261 142.764333,221 141.237,221 C139.709667,221 138.317667,221.261 137.061,221.783 C135.804333,222.305 134.7265,223.03725 133.8275,223.97975 C132.9285,224.92225 132.2325,226.043583 131.7395,227.34375 C131.2465,228.643917 131,230.072167 131,231.6285 C131,233.184833 131.2465,234.613083 131.7395,235.91325 C132.2325,237.213417 132.9285,238.332333 133.8275,239.27 C134.7265,240.207667 135.804333,240.935083 137.061,241.45225 C138.317667,241.969417 139.709667,242.228 141.237,242.228 Z" id="Path" fill="#000000" fill-rule="nonzero"></path>
            <path d="M141.237,239.792 C140.125333,239.792 139.115167,239.605917 138.2065,239.23375 C137.297833,238.861583 136.522083,238.325083 135.87925,237.62425 C135.236417,236.923417 134.741,236.067917 134.393,235.05775 C134.045,234.047583 133.871,232.9045 133.871,231.6285 C133.871,230.3525 134.045,229.207 134.393,228.192 C134.741,227.177 135.236417,226.319083 135.87925,225.61825 C136.522083,224.917417 137.297833,224.3785 138.2065,224.0015 C139.115167,223.6245 140.125333,223.436 141.237,223.436 C142.358333,223.436 143.373333,223.6245 144.282,224.0015 C145.190667,224.3785 145.964,224.917417 146.602,225.61825 C147.24,226.319083 147.733,227.177 148.081,228.192 C148.429,229.207 148.603,230.3525 148.603,231.6285 C148.603,232.9045 148.429,234.047583 148.081,235.05775 C147.733,236.067917 147.24,236.923417 146.602,237.62425 C145.964,238.325083 145.190667,238.861583 144.282,239.23375 C143.373333,239.605917 142.358333,239.792 141.237,239.792 Z" id="Path" fill="#FFFFFF" fill-rule="nonzero"></path>
            <path d="M158.6565,242.2175 C158.907833,242.2175 159.144667,242.171583 159.367,242.07975 C159.589333,241.987917 159.782667,241.859833 159.947,241.6955 C160.111333,241.531167 160.239417,241.34025 160.33125,241.12275 C160.423083,240.90525 160.469,240.666 160.469,240.405 C160.469,240.153667 160.423083,239.916833 160.33125,239.6945 C160.239417,239.472167 160.111333,239.278833 159.947,239.1145 C159.782667,238.950167 159.589333,238.819667 159.367,238.723 C159.144667,238.626333 158.907833,238.578 158.6565,238.578 C158.405167,238.578 158.168333,238.626333 157.946,238.723 C157.723667,238.819667 157.53275,238.950167 157.37325,239.1145 C157.21375,239.278833 157.088083,239.472167 156.99625,239.6945 C156.904417,239.916833 156.8585,240.153667 156.8585,240.405 C156.8585,240.666 156.904417,240.90525 156.99625,241.12275 C157.088083,241.34025 157.21375,241.531167 157.37325,241.6955 C157.53275,241.859833 157.723667,241.987917 157.946,242.07975 C158.168333,242.171583 158.405167,242.2175 158.6565,242.2175 Z" id="Path" fill="#000000" fill-rule="nonzero"></path>
            <polygon id="Path" fill="#000000" fill-rule="nonzero" points="168.9885 242 168.9885 221.2215 166.1755 221.2215 166.1755 242"></polygon>
            <path d="M174.045,242 L174.045,233.329 L176.1765,233.329 C176.563167,233.329 176.853167,233.37975 177.0465,233.48125 C177.239833,233.58275 177.418667,233.7495 177.583,233.9815 L177.583,233.9815 L182.977,241.4055 C183.218667,241.801833 183.595667,242 184.108,242 L184.108,242 L186.602,242 L180.541,233.7495 C180.270333,233.362833 179.961,233.068 179.613,232.865 C180.415333,232.681333 181.133083,232.410667 181.76625,232.053 C182.399417,231.695333 182.935917,231.26275 183.37575,230.75525 C183.815583,230.24775 184.1515,229.675 184.3835,229.037 C184.6155,228.399 184.7315,227.712667 184.7315,226.978 C184.7315,226.098333 184.581667,225.30325 184.282,224.59275 C183.982333,223.88225 183.52075,223.275667 182.89725,222.773 C182.27375,222.270333 181.4835,221.886083 180.5265,221.62025 C179.5695,221.354417 178.433667,221.2215 177.119,221.2215 L177.119,221.2215 L171.2465,221.2215 L171.2465,242 L174.045,242 Z" id="Path" fill="#000000" fill-rule="nonzero"></path>
            <path d="M176.9885,231.2845 L174.045,231.2845 L174.045,223.44 L177.119,223.44 C178.733333,223.44 179.948917,223.754167 180.76575,224.3825 C181.582583,225.010833 181.991,225.943667 181.991,227.181 C181.991,227.79 181.884667,228.345833 181.672,228.8485 C181.459333,229.351167 181.14275,229.78375 180.72225,230.14625 C180.30175,230.50875 179.77975,230.789083 179.15625,230.98725 C178.53275,231.185417 177.810167,231.2845 176.9885,231.2845 L176.9885,231.2845 Z" id="Path" fill="#000000" fill-rule="nonzero"></path>
        </g>
    </g>
</svg>