<?xml version="1.0" encoding="UTF-8"?>
<svg width="1496px" height="866px" viewBox="0 0 1496 866" version="1.1" xmlns="http://www.w3.org/2000/svg" xmlns:xlink="http://www.w3.org/1999/xlink">
    <title>readyToUse</title>
    <defs>
        <linearGradient x1="-0.0167627807%" y1="50.0208211%" x2="99.972271%" y2="50.0208211%" id="linearGradient-1">
            <stop stop-color="#EAEAF1" offset="0.1550722%"></stop>
            <stop stop-color="#EEEFF4" offset="100%"></stop>
        </linearGradient>
        <linearGradient x1="-0.0477756918%" y1="50.0238353%" x2="100.000739%" y2="50.0238353%" id="linearGradient-2">
            <stop stop-color="#4FB1FF" offset="0.6045854%"></stop>
            <stop stop-color="#427CFF" offset="100%"></stop>
        </linearGradient>
        <linearGradient x1="-0.00528101883%" y1="50.0174749%" x2="99.9837527%" y2="50.0174749%" id="linearGradient-3">
            <stop stop-color="#EAEAF1" offset="0.1550722%"></stop>
            <stop stop-color="#EEEFF4" offset="100%"></stop>
        </linearGradient>
        <linearGradient x1="-0.0356372812%" y1="50.0203012%" x2="100.012878%" y2="50.0203012%" id="linearGradient-4">
            <stop stop-color="#4FB1FF" offset="0.6045854%"></stop>
            <stop stop-color="#427CFF" offset="100%"></stop>
        </linearGradient>
        <linearGradient x1="0.0267906333%" y1="50.0275152%" x2="100.015769%" y2="50.0275152%" id="linearGradient-5">
            <stop stop-color="#EAEAF1" offset="0.1550722%"></stop>
            <stop stop-color="#EEEFF4" offset="100%"></stop>
        </linearGradient>
        <linearGradient x1="-0.00173143235%" y1="50.051479%" x2="100.046725%" y2="50.051479%" id="linearGradient-6">
            <stop stop-color="#4FB1FF" offset="0.6045854%"></stop>
            <stop stop-color="#427CFF" offset="100%"></stop>
        </linearGradient>
        <linearGradient x1="0.132006766%" y1="49.9776951%" x2="100.044598%" y2="49.9776951%" id="linearGradient-7">
            <stop stop-color="#4FB1FF" offset="0.6045854%"></stop>
            <stop stop-color="#427CFF" offset="100%"></stop>
        </linearGradient>
        <linearGradient x1="0.0240857952%" y1="50.0206364%" x2="100.013064%" y2="50.0206364%" id="linearGradient-8">
            <stop stop-color="#EAEAF1" offset="0.1550722%"></stop>
            <stop stop-color="#EEEFF4" offset="100%"></stop>
        </linearGradient>
        <linearGradient x1="-0.00459096177%" y1="50.0442114%" x2="100.043924%" y2="50.0442114%" id="linearGradient-9">
            <stop stop-color="#4FB1FF" offset="0.6045854%"></stop>
            <stop stop-color="#427CFF" offset="100%"></stop>
        </linearGradient>
        <linearGradient x1="3.49592219%" y1="44.4987723%" x2="78.0120769%" y2="59.4883342%" id="linearGradient-10">
            <stop stop-color="#4FB1FF" offset="0.6045854%"></stop>
            <stop stop-color="#427CFF" offset="100%"></stop>
        </linearGradient>
        <linearGradient x1="0.0355123563%" y1="50.0172925%" x2="100.024601%" y2="50.0172925%" id="linearGradient-11">
            <stop stop-color="#EAEAF1" offset="0.1550722%"></stop>
            <stop stop-color="#EEEFF4" offset="100%"></stop>
        </linearGradient>
        <linearGradient x1="0.00748909108%" y1="50.0406785%" x2="100.056062%" y2="50.0406785%" id="linearGradient-12">
            <stop stop-color="#4FB1FF" offset="0.6045854%"></stop>
            <stop stop-color="#427CFF" offset="100%"></stop>
        </linearGradient>
        <linearGradient x1="0.0123832302%" y1="50.0029427%" x2="100.001417%" y2="50.0029427%" id="linearGradient-13">
            <stop stop-color="#EAEAF1" offset="0.1550722%"></stop>
            <stop stop-color="#EEEFF4" offset="100%"></stop>
        </linearGradient>
        <linearGradient x1="-0.0169628033%" y1="50.0255344%" x2="100.031552%" y2="50.0255344%" id="linearGradient-14">
            <stop stop-color="#4FB1FF" offset="0.6045854%"></stop>
            <stop stop-color="#427CFF" offset="100%"></stop>
        </linearGradient>
        <linearGradient x1="0.00846397496%" y1="50.0046636%" x2="99.9974977%" y2="50.0046636%" id="linearGradient-15">
            <stop stop-color="#EAEAF1" offset="0.1550722%"></stop>
            <stop stop-color="#EEEFF4" offset="100%"></stop>
        </linearGradient>
        <linearGradient x1="-0.0211062031%" y1="50.0273527%" x2="100.027409%" y2="50.0273527%" id="linearGradient-16">
            <stop stop-color="#4FB1FF" offset="0.6045854%"></stop>
            <stop stop-color="#427CFF" offset="100%"></stop>
        </linearGradient>
        <linearGradient x1="-0.0768375001%" y1="49.9494441%" x2="99.9149373%" y2="49.9494441%" id="linearGradient-17">
            <stop stop-color="#EFEFF6" offset="0.1550722%"></stop>
            <stop stop-color="#EEEFF4" offset="100%"></stop>
        </linearGradient>
        <linearGradient x1="0.0199457368%" y1="50.0013173%" x2="100.008979%" y2="50.0013173%" id="linearGradient-18">
            <stop stop-color="#EAEAF1" offset="0.1550722%"></stop>
            <stop stop-color="#EEEFF4" offset="100%"></stop>
        </linearGradient>
        <linearGradient x1="-0.00896779252%" y1="50.0237162%" x2="100.039547%" y2="50.0237162%" id="linearGradient-19">
            <stop stop-color="#4FB1FF" offset="0.6045854%"></stop>
            <stop stop-color="#427CFF" offset="100%"></stop>
        </linearGradient>
        <linearGradient x1="-0.00318338926%" y1="50.0113691%" x2="99.9857951%" y2="50.0113691%" id="linearGradient-20">
            <stop stop-color="#EAEAF1" offset="0.1550722%"></stop>
            <stop stop-color="#EEEFF4" offset="100%"></stop>
        </linearGradient>
        <linearGradient x1="-0.0334780447%" y1="50.0344203%" x2="100.015037%" y2="50.0344203%" id="linearGradient-21">
            <stop stop-color="#4FB1FF" offset="0.6045854%"></stop>
            <stop stop-color="#427CFF" offset="100%"></stop>
        </linearGradient>
    </defs>
    <g id="Page-1" stroke="none" stroke-width="1" fill="none" fill-rule="evenodd">
        <g id="Group" transform="translate(0.000000, 1.000000)">
            <g id="img3-step1.2a0a1ca">
                <g id="Group" opacity="0.2" stroke="#8888BA">
                    <path d="M645.1,669.9 L336.1,491.5 C279.2,458.7 286.4,401.3 352,363.4 L629.1,203.4 C694.8,165.5 794.1,161.4 851,194.2 L1160,372.6 C1216.9,405.4 1209.7,462.8 1144.1,500.7 L867,660.7 C801.3,698.6 701.9,702.8 645.1,669.9 Z" id="Path"></path>
                    <path d="M577.1,826.9 L64.2,530.8 C-30.2,476.3 -18.4,381.1 90.6,318.1 L550.6,52.5 C659.6,-10.4 824.5,-17.3 918.9,37.2 L1431.8,333.3 C1526.2,387.8 1514.4,483 1405.4,546 L945.4,811.6 C836.4,874.6 671.5,881.4 577.1,826.9 Z" id="Path"></path>
                </g>
                <polygon id="Path" stroke="#C9C9DC" stroke-width="1.5" opacity="0.5" points="352.7 277.5 332.1 286.5 355.9 292.3"></polygon>
                <polygon id="Path" stroke="#C9C9DC" stroke-width="1.5" opacity="0.5" points="929.2 291.2 922.8 283.8 935.7 280.1 942.1 287.5"></polygon>
                <path d="M823,124 C819.4,121.9 819.4,118.5 823,116.4 C826.6,114.3 832.5,114.3 836.2,116.4" id="Path" stroke="#C9C9DC" stroke-width="1.5" opacity="0.5"></path>
                <ellipse id="Oval" fill="#FFCD2D" fill-rule="nonzero" cx="1130.2" cy="285.6" rx="7.1" ry="4.1"></ellipse>
                <ellipse id="Oval" fill="#73DF15" fill-rule="nonzero" cx="585.8" cy="181.3" rx="10.6" ry="6.1"></ellipse>
                <circle id="Oval" fill="#6A7AFF" fill-rule="nonzero" cx="536.6" cy="659.2" r="4.5"></circle>
            </g>
            <g id="img3-step2.4ee3e6e" transform="translate(656.000000, 495.000000)" fill-rule="nonzero">
                <g id="Group">
                    <path d="M86.9,112.9 L10.3,68.7 C4.7,65.4 5.4,59.8 11.9,56 L85.3,13.6 C91.8,9.8 101.7,9.4 107.3,12.7 L183.9,56.9 C189.5,60.2 188.8,65.8 182.3,69.6 L108.9,112 C102.4,115.8 92.6,116.2 86.9,112.9 Z" id="Path" fill="#E7E8EB"></path>
                    <path d="M179.6,53.2 L179.6,54.6 C179.1,54.2 178.6,53.8 177.9,53.4 L101.3,9.2 C95.7,5.9 85.8,6.4 79.3,10.1 L6,52.6 C4.8,53.3 3.7,54.1 2.9,54.9 L2.9,53.5 L0.6,53.5 L0.6,60 L0.6,60 C0.7,62 1.9,63.9 4.4,65.3 L81,109.5 C86.6,112.8 96.5,112.3 103,108.6 L176.4,66.2 C179.8,64.2 181.6,61.8 181.8,59.4 L181.8,59.4 L181.8,59.4 C181.8,59.2 181.8,58.9 181.8,58.7 L181.8,53.3 L179.6,53.3 L179.6,53.2 Z" id="Path" fill="#C9C9DC"></path>
                    <path d="M81,103.6 L4.4,59.4 C-1.2,56.1 -0.5,50.5 6,46.7 L79.4,4.3 C85.9,0.5 95.8,0.1 101.4,3.4 L178,47.6 C183.6,50.9 182.9,56.5 176.4,60.3 L103,102.7 C96.4,106.4 86.6,106.8 81,103.6 Z" id="Path" fill="url(#linearGradient-1)"></path>
                    <path d="M81,99.7 L9.3,58.3 C3.7,55 4.4,49.4 10.9,45.6 L79.4,6 C85.9,2.2 95.8,1.8 101.4,5.1 L173.1,46.5 C178.7,49.8 178,55.4 171.5,59.2 L103,98.8 C96.4,102.5 86.6,102.9 81,99.7 Z" id="Path" fill="#211258"></path>
                    <path d="M81,98.5 L9.3,57.1 C3.7,53.8 4.4,48.2 10.9,44.4 L79.4,4.8 C85.9,1 95.8,0.6 101.4,3.9 L173.1,45.3 C178.7,48.6 178,54.2 171.5,58 L103,97.6 C96.4,101.3 86.6,101.7 81,98.5 Z" id="Path" fill="#362295"></path>
                    <path d="M81,97.3 L9.3,55.9 C3.7,52.6 4.4,47 10.9,43.2 L79.4,3.6 C85.9,-0.2 95.8,-0.6 101.4,2.7 L173.1,44.1 C178.7,47.4 178,53 171.5,56.8 L103,96.4 C96.4,100.1 86.6,100.6 81,97.3 Z" id="Path" fill="url(#linearGradient-2)"></path>
                </g>
                <path d="M128.8,45.8 C126.6,45.8 124.4,45.3 122.9,44.3 C122.5,44 92.5,26.8 92.1,26.5 C92,26.4 91.8,26.4 91.6,26.4 C89.6,26.4 87.6,26.5 85.6,26.5 C85.2,26.5 84.8,26.4 84.5,26.3 C84,26 84,25.6 84.5,25.3 C84.5,25.3 84.5,25.3 84.5,25.3 C85.4,24.8 86.2,24.3 87.1,23.8 C87.3,23.7 87.3,23.6 87.1,23.5 C85.3,21.7 85.4,20 87,18.2 C87.3,17.9 87.7,17.6 88.1,17.3 L89.3,16.6 C89.7,16.4 90.2,16.2 90.7,16.1 C93.4,15.2 96.3,15 99.2,15.8 C100,16 100.8,16.3 101.4,16.7 C103.1,17.7 134.3,35.7 136,36.7 C138.4,38.1 139.1,39.7 138.4,41.6 C137.4,44 133.4,45.8 128.8,45.8 Z M95.6,37.7 C98.8,37.3 101.7,37.7 104,39.1 C105.7,40.1 127.8,52.9 129.5,53.8 C130.2,54.2 130.7,54.6 131.1,55.1 C132.4,56.8 132.1,58.4 130.6,60 C130.3,60.3 130,60.6 129.7,60.8 L128.5,61.5 C128,61.7 127.4,61.9 126.9,62.1 C123.8,63 120.8,63.1 117.8,62.1 C117.6,62 117.5,62 117.3,62.1 C116.4,62.6 115.6,63.1 114.7,63.6 C114.7,63.6 114.7,63.6 114.7,63.6 C114.2,63.9 113.4,63.9 112.9,63.6 C112.6,63.4 112.5,63.2 112.5,63 C112.6,61.8 112.6,60.7 112.6,59.5 C112.6,59.4 112.5,59.3 112.4,59.2 C112,58.9 91.1,46.9 90.7,46.7 C89.1,45.8 88.2,44.6 88.1,43.3 C88.1,40.6 91.2,38.3 95.6,37.7 Z M83.5,61.5 C81.3,61.5 79.1,61 77.6,60 C77.2,59.7 56.3,47.7 55.9,47.5 C55.8,47.4 55.6,47.4 55.4,47.4 C53.4,47.4 51.4,47.5 49.4,47.5 C49,47.5 48.6,47.4 48.3,47.3 C47.8,47 47.8,46.6 48.3,46.3 C48.3,46.3 48.3,46.3 48.3,46.3 C49.2,45.8 50,45.3 50.9,44.8 C51.1,44.7 51.1,44.6 50.9,44.5 C49.1,42.7 49.2,41 50.8,39.2 C51.1,38.9 51.5,38.6 51.9,38.3 L53.1,37.6 C53.5,37.4 54,37.2 54.5,37.1 C57.2,36.2 60.1,36 63,36.8 C63.8,37 64.6,37.3 65.2,37.7 C66.9,38.7 89,51.5 90.7,52.4 C93.1,53.8 93.8,55.4 93.1,57.3 C92,59.7 88,61.5 83.5,61.5 Z M67.1,63.1 C70.3,62.7 73.2,63.1 75.5,64.5 C77.2,65.5 91.5,73.8 93.3,74.7 C94,75.1 94.5,75.5 94.9,76 C96.2,77.7 95.9,79.3 94.4,80.9 C94.1,81.2 93.8,81.5 93.5,81.7 L92.3,82.4 C91.8,82.6 91.2,82.8 90.7,83 C87.6,83.9 84.6,84 81.6,83 C81.4,82.9 81.3,82.9 81.1,83 C80.2,83.5 79.4,84 78.5,84.5 C78.5,84.5 78.5,84.5 78.5,84.5 C78,84.8 77.2,84.8 76.7,84.5 C76.4,84.3 76.3,84.1 76.3,83.9 C76.4,82.7 76.4,81.6 76.4,80.4 C76.4,80.3 76.3,80.2 76.2,80.1 C75.8,79.8 62.7,72.3 62.3,72.1 C60.7,71.2 59.8,70 59.7,68.7 C59.6,66.1 62.7,63.8 67.1,63.1 Z" id="Shape" fill="#0449C5" opacity="0.3"></path>
                <path d="M128.8,43.5 C126.6,43.5 124.4,43 122.9,42 C122.5,41.7 92.5,24.5 92.1,24.2 C92,24.1 91.8,24.1 91.6,24.1 C89.6,24.1 87.6,24.2 85.6,24.2 C85.2,24.2 84.8,24.1 84.5,24 C84,23.7 84,23.3 84.5,23 C84.5,23 84.5,23 84.5,23 C85.4,22.5 86.2,22 87.1,21.5 C87.3,21.4 87.3,21.3 87.1,21.2 C85.3,19.4 85.4,17.7 87,15.9 C87.3,15.6 87.7,15.3 88.1,15 L89.3,14.3 C89.7,14.1 90.2,13.9 90.7,13.8 C93.4,12.9 96.3,12.7 99.2,13.5 C100,13.7 100.8,14 101.4,14.4 C103.1,15.4 134.3,33.4 136,34.4 C138.4,35.8 139.1,37.4 138.4,39.3 C137.4,41.7 133.4,43.5 128.8,43.5 Z M95.6,35.3 C98.8,34.9 101.7,35.3 104,36.7 C105.7,37.7 127.8,50.5 129.5,51.4 C130.2,51.8 130.7,52.2 131.1,52.7 C132.4,54.4 132.1,56 130.6,57.6 C130.3,57.9 130,58.2 129.7,58.4 L128.5,59.1 C128,59.3 127.4,59.5 126.9,59.7 C123.8,60.6 120.8,60.7 117.8,59.7 C117.6,59.6 117.5,59.6 117.3,59.7 C116.4,60.2 115.6,60.7 114.7,61.2 C114.7,61.2 114.7,61.2 114.7,61.2 C114.2,61.5 113.4,61.5 112.9,61.2 C112.6,61 112.5,60.8 112.5,60.6 C112.6,59.4 112.6,58.3 112.6,57.1 C112.6,57 112.5,56.9 112.4,56.8 C112,56.5 91.1,44.5 90.7,44.3 C89.1,43.4 88.2,42.2 88.1,40.9 C88.1,38.3 91.2,36 95.6,35.3 Z M83.5,59.2 C81.3,59.2 79.1,58.7 77.6,57.7 C77.2,57.4 56.3,45.4 55.9,45.2 C55.8,45.1 55.6,45.1 55.4,45.1 C53.4,45.1 51.4,45.2 49.4,45.2 C49,45.2 48.6,45.1 48.3,45 C47.8,44.7 47.8,44.3 48.3,44 C48.3,44 48.3,44 48.3,44 C49.2,43.5 50,43 50.9,42.5 C51.1,42.4 51.1,42.3 50.9,42.2 C49.1,40.4 49.2,38.7 50.8,36.9 C51.1,36.6 51.5,36.3 51.9,36 L53.1,35.3 C53.5,35.1 54,34.9 54.5,34.8 C57.2,33.9 60.1,33.7 63,34.5 C63.8,34.7 64.6,35 65.2,35.4 C66.9,36.4 89,49.2 90.7,50.1 C93.1,51.5 93.8,53.1 93.1,55 C92,57.4 88,59.2 83.5,59.2 Z M67.1,60.8 C70.3,60.4 73.2,60.8 75.5,62.2 C77.2,63.2 91.5,71.5 93.3,72.4 C94,72.8 94.5,73.2 94.9,73.7 C96.2,75.4 95.9,77 94.4,78.6 C94.1,78.9 93.8,79.2 93.5,79.4 L92.3,80.1 C91.8,80.3 91.2,80.5 90.7,80.7 C87.6,81.6 84.6,81.7 81.6,80.7 C81.4,80.6 81.3,80.6 81.1,80.7 C80.2,81.2 79.4,81.7 78.5,82.2 C78.5,82.2 78.5,82.2 78.5,82.2 C78,82.5 77.2,82.5 76.7,82.2 C76.4,82 76.3,81.8 76.3,81.6 C76.4,80.4 76.4,79.3 76.4,78.1 C76.4,78 76.3,77.9 76.2,77.8 C75.8,77.5 62.7,70 62.3,69.8 C60.7,68.9 59.8,67.7 59.7,66.4 C59.6,63.7 62.7,61.4 67.1,60.8 Z" id="Shape" fill="#FFFFFF"></path>
            </g>
            <g id="img3-step3.de00d06" transform="translate(548.000000, 432.000000)">
                <g id="Group" fill-rule="nonzero">
                    <path d="M86.6,112.6 L10,68.4 C4.4,65.1 5.1,59.5 11.6,55.7 L85,13.3 C91.5,9.5 101.4,9.1 107,12.4 L183.6,56.6 C189.2,59.9 188.5,65.5 182,69.3 L108.6,111.7 C102.1,115.5 92.3,115.9 86.6,112.6 Z" id="Path" fill="#E7E8EB"></path>
                    <path d="M179.3,52.9 L179.3,54.3 C178.8,53.9 178.3,53.5 177.6,53.1 L101.1,9 C95.5,5.7 85.6,6.2 79.1,9.9 L5.7,52.3 C4.5,53 3.4,53.8 2.6,54.6 L2.6,53.2 L0.3,53.2 L0.3,59.7 L0.3,59.7 C0.4,61.7 1.6,63.6 4.1,65 L80.7,109.2 C86.3,112.5 96.2,112 102.7,108.3 L176.1,65.9 C179.5,63.9 181.3,61.5 181.5,59.1 L181.5,59.1 L181.5,59.1 C181.5,58.9 181.5,58.6 181.5,58.4 L181.5,53 L179.3,53 L179.3,52.9 Z" id="Path" fill="#C9C9DC"></path>
                    <path d="M80.7,103.3 L4.1,59.1 C-1.5,55.8 -0.8,50.2 5.7,46.4 L79.1,4 C85.6,0.2 95.5,-0.2 101.1,3.1 L177.7,47.3 C183.3,50.6 182.6,56.2 176.1,60 L102.7,102.4 C96.2,106.1 86.3,106.5 80.7,103.3 Z" id="Path" fill="url(#linearGradient-3)"></path>
                    <path d="M80.7,99.4 L9,58 C3.4,54.7 4.1,49.1 10.6,45.3 L79.1,5.7 C85.6,1.9 95.5,1.5 101.1,4.8 L172.8,46.2 C178.4,49.5 177.7,55.1 171.2,58.9 L102.7,98.5 C96.2,102.2 86.3,102.6 80.7,99.4 Z" id="Path" fill="#211258"></path>
                    <path d="M80.7,98.2 L9,56.8 C3.4,53.5 4.1,47.9 10.6,44.1 L79.1,4.5 C85.6,0.7 95.5,0.3 101.1,3.6 L172.8,45 C178.4,48.3 177.7,53.9 171.2,57.7 L102.7,97.3 C96.2,101 86.3,101.4 80.7,98.2 Z" id="Path" fill="#362295"></path>
                    <path d="M80.7,97 L9,55.6 C3.4,52.3 4.1,46.7 10.6,42.9 L79.1,3.3 C85.6,-0.5 95.5,-0.9 101.1,2.4 L172.8,43.8 C178.4,47.1 177.7,52.7 171.2,56.5 L102.7,96.1 C96.2,99.8 86.3,100.3 80.7,97 Z" id="Path" fill="url(#linearGradient-4)"></path>
                </g>
                <ellipse id="Oval" fill="#0449C5" fill-rule="nonzero" opacity="0.3" cx="95.9" cy="50.7" rx="41.6" ry="24"></ellipse>
                <g id="Group" transform="translate(48.000000, 18.000000)">
                    <path d="M83.2,24.1 L80.4,24.1 C78.4,21 75.2,18.2 71,15.7 C54.7,6.3 28.4,6.3 12.2,15.7 C7.9,18.2 4.8,21 2.8,24.1 L2.27373675e-13,24.1 L2.27373675e-13,32.7 L2.27373675e-13,32.7 C2.27373675e-13,38.8 4.1,45 12.2,49.7 C28.5,59.1 54.8,59.1 71,49.7 C79.1,45 83.2,38.9 83.2,32.7 L83.2,32.7 L83.2,24.1 L83.2,24.1 Z" id="Path" fill="#FFBA1E" fill-rule="nonzero"></path>
                    <ellipse id="Oval" fill="#FFD06C" fill-rule="nonzero" cx="41.6" cy="24.1" rx="41.6" ry="24"></ellipse>
                    <ellipse id="Oval" stroke="#FFFFFF" stroke-width="2" cx="41.6" cy="24.1" rx="33.3" ry="19.2"></ellipse>
                </g>
                <path d="M77.6,52.3 L76.6,52.9 C75.2,53.7 72.9,53.7 71.5,52.9 C70.1,52.1 70.1,50.8 71.5,50 L72.5,49.5 C71.2,48.3 70.2,46.9 69.8,45.5 C69.4,44.4 70.7,43.3 72.6,43 C72.8,43 72.9,43 73.1,43 L73.1,43 C74.9,42.9 76.5,43.7 76.8,44.7 C77.2,46 78.2,47.2 79.8,48.2 C82.2,49.6 85.6,49.9 87.2,48.9 C88.6,48.1 88.1,46.1 86,43.6 C81.4,38 83.6,35 86.3,33.5 C90,31.3 96.1,31.2 101.1,32.9 L102.1,32.3 C103.5,31.5 105.8,31.5 107.2,32.3 C108.6,33.1 108.6,34.4 107.2,35.2 L106.2,35.7 C107.5,36.9 108.5,38.3 108.9,39.7 C109.3,40.8 108,41.9 106.1,42.2 C104.2,42.4 102.3,41.7 101.9,40.6 C101.5,39.3 100.5,38.1 98.9,37.1 C96.5,35.7 93.1,35.4 91.5,36.4 C90.1,37.2 90.6,39.2 92.7,41.7 C97.3,47.3 95.1,50.3 92.4,51.8 C88.6,53.9 82.5,54 77.6,52.3 Z" id="Path" fill="#F48F36" fill-rule="nonzero"></path>
            </g>
            <g id="img3-step4.531e494" transform="translate(441.000000, 370.000000)" fill-rule="nonzero">
                <g id="Group">
                    <path d="M87.1,112.8 L10.5,68.6 C4.9,65.3 5.6,59.7 12.1,55.9 L85.5,13.5 C92,9.7 101.9,9.3 107.5,12.6 L184.1,56.8 C189.7,60.1 189,65.7 182.5,69.5 L109.1,111.9 C102.6,115.6 92.7,116 87.1,112.8 Z" id="Path" fill="#E7E8EB"></path>
                    <path d="M179.8,53.1 L179.8,54.5 C179.3,54.1 178.8,53.7 178.1,53.3 L101.5,9.1 C95.9,5.8 86,6.3 79.5,10 L6.1,52.4 C4.9,53.1 3.8,53.9 3,54.7 L3,53.3 L0.7,53.3 L0.7,59.8 L0.7,59.8 C0.8,61.8 2,63.7 4.5,65.1 L81.1,109.3 C86.7,112.6 96.6,112.1 103.1,108.4 L176.5,66 C179.9,64 181.7,61.6 181.9,59.2 L181.9,59.2 L181.9,59.2 C181.9,59 181.9,58.7 181.9,58.5 L181.9,53.1 L179.8,53.1 L179.8,53.1 Z" id="Path" fill="#C9C9DC"></path>
                    <path d="M81.1,103.4 L4.5,59.2 C-1.1,55.9 -0.4,50.3 6.1,46.5 L79.5,4.1 C86,0.3 95.9,-0.1 101.5,3.2 L178.1,47.4 C183.7,50.7 183,56.3 176.5,60.1 L103.1,102.5 C96.6,106.3 86.8,106.7 81.1,103.4 Z" id="Path" fill="url(#linearGradient-5)"></path>
                    <path d="M81.1,99.5 L9.4,58.1 C3.8,54.8 4.5,49.2 11,45.4 L79.5,5.8 C86,2 95.9,1.6 101.5,4.9 L173.2,46.3 C178.8,49.6 178.1,55.2 171.6,59 L103.1,98.6 C96.6,102.3 86.8,102.8 81.1,99.5 Z" id="Path" fill="#211258"></path>
                    <path d="M81.1,98.3 L9.4,56.9 C3.8,53.6 4.5,48 11,44.2 L79.5,4.6 C86,0.8 95.9,0.4 101.5,3.7 L173.2,45.1 C178.8,48.4 178.1,54 171.6,57.8 L103.1,97.4 C96.6,101.2 86.8,101.6 81.1,98.3 Z" id="Path" fill="#362295"></path>
                    <path d="M81.1,97.1 L9.4,55.7 C3.8,52.4 4.5,46.8 11,43 L79.5,3.4 C86,-0.4 95.9,-0.8 101.5,2.5 L173.2,43.9 C178.8,47.2 178.1,52.8 171.6,56.6 L103.1,96.2 C96.6,100 86.8,100.4 81.1,97.1 Z" id="Path" fill="url(#linearGradient-6)"></path>
                </g>
                <g id="Group" transform="translate(33.000000, 11.000000)">
                    <path d="M55.6,71.7 L3.9,41.8 C-0.9,39.1 -0.3,34.3 5.2,31.1 L45,8.1 C50.5,4.9 58.8,4.6 63.6,7.3 L115.3,37.2 C120.1,39.9 119.5,44.7 114,47.9 L74.2,70.9 C68.7,74.1 60.4,74.4 55.6,71.7 Z" id="Path" fill="#0449C5" opacity="0.3"></path>
                    <path d="M55.6,66.5 L3.9,36.6 C-0.9,33.9 -0.3,29.1 5.2,25.9 L45,2.9 C50.5,-0.3 58.8,-0.6 63.6,2.1 L115.3,32 C120.1,34.7 119.5,39.5 114,42.7 L74.2,65.7 C68.7,68.9 60.4,69.2 55.6,66.5 Z" id="Path" fill="#FFFFFF"></path>
                    <path d="M93.3,41 L48,14.9 C46.2,13.9 46.4,12.1 48.5,10.9 L48.5,10.9 C50.6,9.7 53.7,9.6 55.5,10.6 L100.7,36.7 C102.5,37.7 102.3,39.5 100.2,40.7 L100.2,40.7 C98.2,41.9 95.1,42 93.3,41 Z M85.3,49.3 L85.3,49.3 C87.4,48.1 87.6,46.3 85.8,45.3 L40.6,19.2 C38.8,18.2 35.7,18.3 33.6,19.5 L33.6,19.5 C31.5,20.7 31.3,22.5 33.1,23.5 L78.3,49.6 C80.2,50.7 83.3,50.5 85.3,49.3 Z M35.8,38 L35.8,38 C37.9,36.8 38.1,35 36.3,34 L25.6,27.8 C23.8,26.8 20.7,26.9 18.6,28.1 L18.6,28.1 C16.5,29.3 16.3,31.1 18.1,32.1 L28.8,38.3 C30.7,39.3 33.8,39.2 35.8,38 Z" id="Shape" fill="url(#linearGradient-7)"></path>
                </g>
            </g>
            <g id="img3-step5.2c667b2" transform="translate(761.000000, 434.000000)" fill-rule="nonzero">
                <g id="Group">
                    <path d="M86.7,112.7 L10.1,68.5 C4.5,65.2 5.2,59.6 11.7,55.8 L85.1,13.4 C91.6,9.6 101.5,9.2 107.1,12.5 L183.7,56.7 C189.3,60 188.6,65.6 182.1,69.4 L108.7,111.8 C102.2,115.5 92.3,115.9 86.7,112.7 Z" id="Path" fill="#E7E8EB"></path>
                    <path d="M179.4,53 L179.4,54.4 C178.9,54 178.4,53.6 177.7,53.2 L101.1,9 C95.5,5.7 85.6,6.2 79.1,9.9 L5.7,52.3 C4.5,53 3.4,53.8 2.6,54.6 L2.6,53.2 L0.3,53.2 L0.3,59.7 L0.3,59.7 C0.4,61.7 1.6,63.6 4.1,65 L80.7,109.2 C86.3,112.5 96.2,112 102.7,108.3 L176.1,65.9 C179.5,63.9 181.3,61.5 181.5,59.1 L181.5,59.1 L181.5,59.1 C181.5,58.9 181.5,58.6 181.5,58.4 L181.5,53 L179.4,53 Z" id="Path" fill="#C9C9DC"></path>
                    <path d="M80.7,103.3 L4.1,59.1 C-1.5,55.8 -0.8,50.2 5.7,46.4 L79.1,4 C85.6,0.2 95.5,-0.2 101.1,3.1 L177.7,47.3 C183.3,50.6 182.6,56.2 176.1,60 L102.7,102.4 C96.2,106.2 86.4,106.6 80.7,103.3 Z" id="Path" fill="url(#linearGradient-8)"></path>
                    <path d="M80.7,99.4 L9,58 C3.4,54.7 4.1,49.1 10.6,45.3 L79.1,5.7 C85.6,1.9 95.5,1.5 101.1,4.8 L172.8,46.2 C178.4,49.5 177.7,55.1 171.2,58.9 L102.7,98.5 C96.2,102.2 86.4,102.6 80.7,99.4 Z" id="Path" fill="#211258"></path>
                    <path d="M80.7,98.2 L9,56.8 C3.4,53.5 4.1,47.9 10.6,44.1 L79.1,4.5 C85.6,0.7 95.5,0.3 101.1,3.6 L172.8,45 C178.4,48.3 177.7,53.9 171.2,57.7 L102.7,97.3 C96.2,101.1 86.4,101.5 80.7,98.2 Z" id="Path" fill="#362295"></path>
                    <path d="M80.7,97 L9,55.6 C3.4,52.3 4.1,46.7 10.6,42.9 L79.1,3.3 C85.6,-0.5 95.5,-0.9 101.1,2.4 L172.8,43.8 C178.4,47.1 177.7,52.7 171.2,56.5 L102.7,96.1 C96.2,99.9 86.4,100.3 80.7,97 Z" id="Path" fill="url(#linearGradient-9)"></path>
                </g>
                <g id="Group" opacity="0.3" transform="translate(47.000000, 18.000000)" fill="#0449C5">
                    <path d="M47.6,1.5 C53.3,4.2 63,8 75.7,9.6 C78.4,9.9 80.5,11.1 81,12.7 C83.8,20.1 90.6,25.8 95.2,29 C97.8,30.8 97.3,33.7 94,35.6 C80.3,43.8 44.5,62.2 8.1,54.1 C6.1,53.7 4.6,52.7 3.9,51.5 C-7,31.8 11.5,17.3 35.6,2.3 C39,0.3 44.3,-0.1 47.6,1.5 Z" id="Path"></path>
                </g>
                <path d="M94.6,13.6 C100.3,16.3 110,20.1 122.7,21.7 C125.4,22 127.5,23.2 128,24.8 C130.8,32.2 137.6,37.9 142.2,41.1 C144.8,42.9 144.3,45.8 141,47.7 C127.3,55.9 91.5,74.3 55.1,66.2 C53.1,65.8 51.6,64.8 50.9,63.6 C40,43.9 58.5,29.4 82.6,14.4 C86,12.4 91.3,12 94.6,13.6 Z" id="Path" fill="#FFFFFF"></path>
                <g id="Group" transform="translate(75.000000, 33.637820)" fill="url(#linearGradient-10)">
                    <path d="M39.3,10.8 C38.6,10.4 37.6,10.2 36.6,10.2 L9.4,10.2 L7.9,2.6 C7.7,1.4 5.9,0.5 3.8,0.6 C1.7,0.7 0.2,1.8 0.3,3 C0.3,3.1 0.3,3.1 0.3,3.2 L2.2,12.7 C2.4,13.8 4,14.6 6,14.6 L36.6,14.6 C38.7,14.6 40.4,13.7 40.5,12.4 C40.5,11.8 40.1,11.2 39.3,10.8 L39.3,10.8 Z" id="Path"></path>
                </g>
            </g>
            <g id="img3-step6.2975173" transform="translate(653.000000, 365.000000)" fill-rule="nonzero">
                <g id="Group" transform="translate(0.000000, 5.000000)">
                    <path d="M86.4,113.4 L9.8,69.2 C4.2,65.9 4.9,60.3 11.4,56.5 L84.8,14.1 C91.3,10.3 101.2,9.9 106.8,13.2 L183.4,57.4 C189,60.7 188.3,66.3 181.8,70.1 L108.4,112.5 C101.9,116.2 92.1,116.6 86.4,113.4 Z" id="Path" fill="#E7E8EB"></path>
                    <path d="M179.1,53.7 L179.1,55.1 C178.6,54.7 178.1,54.3 177.4,53.9 L100.8,9.7 C95.2,6.4 85.3,6.9 78.8,10.6 L5.5,53 C4.3,53.7 3.2,54.5 2.4,55.3 L2.4,53.9 L0.1,53.9 L0.1,60.4 L0.1,60.4 C0.2,62.4 1.4,64.3 3.9,65.7 L80.5,109.9 C86.1,113.2 96,112.7 102.5,109 L175.9,66.6 C179.3,64.6 181.1,62.2 181.3,59.8 L181.3,59.8 L181.3,59.8 C181.3,59.6 181.3,59.3 181.3,59.1 L181.3,53.7 L179.1,53.7 L179.1,53.7 Z" id="Path" fill="#C9C9DC"></path>
                    <path d="M80.4,104 L3.8,59.8 C-1.8,56.5 -1.1,50.9 5.4,47.1 L78.8,4.7 C85.3,0.9 95.2,0.5 100.8,3.8 L177.4,48 C183,51.3 182.3,56.9 175.8,60.7 L102.4,103.1 C95.9,106.9 86.1,107.3 80.4,104 Z" id="Path" fill="url(#linearGradient-11)"></path>
                    <path d="M80.4,100.1 L8.7,58.7 C3.1,55.4 3.8,49.8 10.3,46 L78.8,6.4 C85.3,2.6 95.2,2.2 100.8,5.5 L172.5,46.9 C178.1,50.2 177.4,55.8 170.9,59.6 L102.4,99.2 C95.9,102.9 86.1,103.3 80.4,100.1 Z" id="Path" fill="#211258"></path>
                    <path d="M80.4,98.9 L8.7,57.5 C3.1,54.2 3.8,48.6 10.3,44.8 L78.8,5.2 C85.3,1.4 95.2,1 100.8,4.3 L172.5,45.7 C178.1,49 177.4,54.6 170.9,58.4 L102.4,98 C95.9,101.8 86.1,102.2 80.4,98.9 Z" id="Path" fill="#362295"></path>
                    <path d="M80.4,97.7 L8.7,56.3 C3.1,53 3.8,47.4 10.3,43.6 L78.8,4 C85.3,0.2 95.2,-0.2 100.8,3.1 L172.5,44.5 C178.1,47.8 177.4,53.4 170.9,57.2 L102.4,96.8 C95.9,100.6 86.1,101 80.4,97.7 Z" id="Path" fill="url(#linearGradient-12)"></path>
                </g>
                <g id="Group" opacity="0.3" transform="translate(41.000000, 31.000000)" fill="#0449C5">
                    <polygon id="Path" points="52.9 7.3 46.3 9.4 46 9.2 33.4 5 32.7 0.4 23.5 3.3 23.5 9.2 31.1 12.2 23.4 16.7 0.6 24 0.6 29.8 12.4 36.6 52.9 13.2"></polygon>
                    <path d="M74.7,25 C63.8,18.7 52.5,19.9 44.8,24.3 C44.3,24.6 43.8,24.9 43.3,25.2 L38.6,26.2 L38.6,31.7 C38.6,31.8 38.6,32 38.6,32.1 L38.6,32.2 L38.6,32.2 C38.7,34.5 40.5,36.8 44.3,39 C48.5,41.4 52.7,42.2 52.7,42.2 C47.6,44.2 43.2,44.5 37.5,41.2 C33.6,38.9 32.1,36.7 32.1,36.7 L29.7,37.7 L29.9,35.7 L22,35.2 L22,41.1 C22,41.1 23.7,43.9 29.5,47.2 C43.7,55.4 58.2,52.9 71.6,45.1 C80.2,40 88.4,32.9 74.7,25 Z M61.2,37.5 C61.2,37.5 58.2,37.2 55.9,35.8 C53.4,34.3 53.5,32.8 56.6,31 C60,29 63.2,29 65.7,30.4 C69.3,32.5 66.2,34.6 61.2,37.5 Z" id="Shape"></path>
                </g>
                <path d="M176.4,55.1 C176.4,55 176.4,54.9 176.4,54.8 L176.4,49.2 L174.2,49.2 L174.2,50.7 C173.7,50.3 173.2,49.9 172.6,49.6 L100.9,8.2 C95.3,4.9 85.4,5.4 78.9,9.1 L67.8,15.5 L161.4,67.8 L171,62.2 C174.4,60.2 176.2,57.8 176.4,55.4 L176.4,55.4 L176.4,55.1 L176.4,55.1 Z" id="Path" fill="#F16646"></path>
                <path d="M67.7,9.6 L78.8,3.2 C85.3,-0.6 95.2,-1 100.8,2.3 L172.5,43.7 C178.1,47 177.4,52.6 170.9,56.4 L161.3,62 L67.7,9.6 Z" id="Path" fill="#FF6F47"></path>
                <g id="Group" transform="translate(41.000000, 29.000000)" fill="#FFFFFF">
                    <polygon id="Path" points="0.6 26 31.1 8.4 23.5 5.4 30.3 0.1 46 5.4 52.9 9.4 12.4 32.8"></polygon>
                    <path d="M31.9,32.8 C31.9,32.8 33.4,35 37.3,37.3 C43.1,40.6 47.4,40.2 52.5,38.3 C52.5,38.3 48.4,37.6 44.1,35.1 C35.7,30.2 37.3,24.7 44.6,20.5 C52.3,16 63.6,14.8 74.5,21.2 C88.2,29.1 80.1,36.3 71.3,41.3 C57.8,49.1 43.4,51.6 29.2,43.4 C23.5,40.1 21.7,37.3 21.7,37.3 L31.9,32.8 Z M65.8,26.6 C63.3,25.2 60.1,25.2 56.7,27.2 C53.6,29 53.5,30.6 56,32 C58.3,33.3 61.3,33.7 61.3,33.7 C66.2,30.8 69.3,28.6 65.8,26.6 Z" id="Shape"></path>
                </g>
                <polygon id="Path" fill="#CE573C" points="161.4 61.9 161.4 67.8 67.7 15.5 67.7 9.6"></polygon>
            </g>
            <g id="img3-step7.b992894" transform="translate(526.000000, 293.000000)" fill-rule="nonzero">
                <g id="Group" transform="translate(20.000000, 16.000000)">
                    <path d="M86.9,112.5 L10.3,68.3 C4.7,65 5.4,59.4 11.9,55.6 L85.3,13.2 C91.8,9.4 101.7,9 107.3,12.3 L183.9,56.5 C189.5,59.8 188.8,65.4 182.3,69.2 L108.9,111.6 C102.4,115.4 92.5,115.8 86.9,112.5 Z" id="Path" fill="#E7E8EB"></path>
                    <path d="M179.5,52.8 L179.5,54.2 C179,53.8 178.5,53.4 177.8,53 L101.2,8.8 C95.6,5.5 85.7,6 79.2,9.7 L5.8,52.1 C4.6,52.8 3.5,53.6 2.7,54.4 L2.7,53 L0.4,53 L0.4,59.5 L0.4,59.5 C0.5,61.5 1.7,63.4 4.2,64.8 L80.8,109 C86.4,112.3 96.3,111.8 102.8,108.1 L176.2,65.7 C179.6,63.7 181.4,61.3 181.6,58.9 L181.6,58.9 L181.6,58.9 C181.6,58.7 181.6,58.4 181.6,58.2 L181.6,52.8 L179.5,52.8 L179.5,52.8 Z" id="Path" fill="#C9C9DC"></path>
                    <path d="M80.9,103.2 L4.3,59 C-1.3,55.7 -0.6,50.1 5.9,46.3 L79.3,3.9 C85.8,0.1 95.7,-0.3 101.3,3 L177.9,47.2 C183.5,50.5 182.8,56.1 176.3,59.9 L102.9,102.3 C96.4,106 86.5,106.4 80.9,103.2 Z" id="Path" fill="url(#linearGradient-13)"></path>
                    <path d="M80.9,99.2 L9.2,57.8 C3.6,54.5 4.3,48.9 10.8,45.1 L79.3,5.5 C85.8,1.7 95.7,1.3 101.3,4.6 L173,46 C178.6,49.3 177.9,54.9 171.4,58.7 L102.9,98.3 C96.4,102.1 86.5,102.5 80.9,99.2 Z" id="Path" fill="#211258"></path>
                    <path d="M80.9,98.1 L9.2,56.7 C3.6,53.4 4.3,47.8 10.8,44 L79.3,4.4 C85.8,0.6 95.7,0.2 101.3,3.5 L173,44.9 C178.6,48.2 177.9,53.8 171.4,57.6 L102.9,97.2 C96.4,100.9 86.5,101.3 80.9,98.1 Z" id="Path" fill="#362295"></path>
                    <path d="M80.9,96.9 L9.2,55.5 C3.6,52.2 4.3,46.6 10.8,42.8 L79.3,3.2 C85.8,-0.6 95.7,-1 101.3,2.3 L173,43.7 C178.6,47 177.9,52.6 171.4,56.4 L102.9,96 C96.4,99.7 86.5,100.1 80.9,96.9 Z" id="Path" fill="url(#linearGradient-14)"></path>
                </g>
                <g id="Group" opacity="0.3" fill="#FFFFFF">
                    <g id="Path">
                        <polygon points="55.9 47.6 122 60.4 134 40.5 68 27.6"></polygon>
                        <polygon points="159.2 45.4 138.3 41.3 126.2 61.3 147.2 65.3"></polygon>
                        <polygon points="198.7 78.4 197.9 78.3 197.3 79.3"></polygon>
                        <polygon points="196.9 49.6 170.7 34.5 165.2 43.5"></polygon>
                        <path d="M219.3,62.6 L210.4,57.5 L199.5,75.6 L202.7,76.2 L218.6,67 C220.9,65.8 221.2,63.9 219.3,62.6 Z"></path>
                        <polygon points="160.9 42.6 167.1 32.4 149.8 22.4 140 38.5"></polygon>
                        <polygon points="125 109.8 114.6 127 139.6 112.6"></polygon>
                        <path d="M1.7,66.5 L29.8,82.7 L50,49.4 L30.8,45.6 L2.4,62 C0.1,63.3 -0.2,65.2 1.7,66.5 Z"></path>
                        <polygon points="189.9 83.5 193.6 77.5 149.8 68.9 126.7 107 143.6 110.3"></polygon>
                        <polygon points="206.9 55.4 205 54.3 163.5 46.2 151.5 66.2 195.2 74.7"></polygon>
                        <polygon points="95.5 104 51.9 95.6 88.1 116.4"></polygon>
                        <polygon points="145.5 68.1 124.6 64 101.5 102.1 122.4 106.2"></polygon>
                        <path d="M136.1,14.5 L114,1.7 C111.7,0.6 108.3,0.8 106.4,2.1 L93.1,9.8 L136.1,14.5 Z"></path>
                        <path d="M109.3,127.8 L120.7,108.9 L99.8,104.8 L91.6,118.4 L107,127.3 C107.6,127.6 108.3,127.8 109.1,127.9 L109.3,127.8 Z"></path>
                        <polygon points="71.1 22.5 69.6 24.9 135.7 37.7 146.2 20.3 142.3 18.1 88.8 12.2"></polygon>
                        <polygon points="51.6 46.7 63.7 26.8 63.6 26.8 34.8 43.5"></polygon>
                        <polygon points="54.2 50.3 33.3 84.8 43.8 90.9 97.2 101.3 120.3 63.2"></polygon>
                    </g>
                </g>
                <g id="Group" transform="translate(97.000000, 40.000000)">
                    <path d="M22.4,2.8 C18.4,0.5 14.7,0.1 12,1.4 L12,1.4 L12,1.4 C11.9,1.5 11.8,1.5 11.6,1.6 L6,4.4 L5.6,6.4 L7.4,7.3 C7,8.7 6.8,10.2 6.8,12 C6.8,20.2 10.5,28.7 20.5,52.6 L15.9,55.3 L16.9,59.6 L22.7,56.7 L22.7,56.7 C22.7,56.7 22.8,56.6 22.8,56.6 C34,42.9 38,38.6 38,30 C38.1,19.9 31.1,7.8 22.4,2.8 Z M22.4,29.2 C18.4,26.9 15.2,21.3 15.2,16.6 C15.2,12 18.4,10.1 22.4,12.4 C26.4,14.7 29.6,20.3 29.6,25 C29.7,29.7 26.4,31.5 22.4,29.2 Z" id="Shape" fill="#C9C9DC"></path>
                    <path d="M16.6,5.6 C8,0.6 0.9,4.7 0.9,14.6 C0.9,23.2 5,32.2 16.1,58.8 C16.3,59.4 16.7,59.6 16.9,59.3 C28.1,45.6 32.1,41.3 32.1,32.7 C32.3,22.7 25.3,10.6 16.6,5.6 Z M16.6,32.1 C12.6,29.8 9.4,24.2 9.4,19.5 C9.4,14.9 12.6,13 16.6,15.3 C20.6,17.6 23.8,23.2 23.8,27.9 C23.9,32.5 20.6,34.4 16.6,32.1 Z" id="Shape" fill="#FFFFFF"></path>
                </g>
            </g>
            <g id="img3-step8.7924380" transform="translate(864.000000, 372.000000)" fill-rule="nonzero">
                <g id="Group">
                    <path d="M86.6,113 L10,68.8 C4.4,65.5 5.1,59.9 11.6,56.1 L85,13.7 C91.5,9.9 101.4,9.5 107,12.8 L183.6,57 C189.2,60.3 188.5,65.9 182,69.7 L108.6,112.1 C102,115.9 92.2,116.3 86.6,113 Z" id="Path" fill="#E7E8EB"></path>
                    <path d="M179.2,53.3 L179.2,54.7 C178.7,54.3 178.2,53.9 177.5,53.5 L101,9.4 C95.4,6.1 85.5,6.6 79,10.3 L5.6,52.7 C4.4,53.4 3.3,54.2 2.5,55 L2.5,53.6 L0.2,53.6 L0.2,60.1 L0.2,60.1 C0.3,62.1 1.5,64 4,65.4 L80.6,109.6 C86.2,112.9 96.1,112.4 102.6,108.7 L176,66.3 C179.4,64.3 181.2,61.9 181.4,59.5 L181.4,59.5 L181.4,59.5 C181.4,59.3 181.4,59 181.4,58.8 L181.4,53.4 L179.2,53.4 L179.2,53.3 Z" id="Path" fill="#C9C9DC"></path>
                    <path d="M80.6,103.7 L4,59.5 C-1.6,56.2 -0.9,50.6 5.6,46.8 L79,4.4 C85.5,0.6 95.4,0.2 101,3.5 L177.6,47.7 C183.2,51 182.5,56.6 176,60.4 L102.6,102.8 C96.1,106.5 86.2,106.9 80.6,103.7 Z" id="Path" fill="url(#linearGradient-15)"></path>
                    <path d="M80.6,99.7 L8.9,58.3 C3.3,55 4,49.4 10.5,45.6 L79,6 C85.5,2.2 95.4,1.8 101,5.1 L172.7,46.5 C178.3,49.8 177.6,55.4 171.1,59.2 L102.6,98.8 C96.1,102.6 86.2,103 80.6,99.7 Z" id="Path" fill="#211258"></path>
                    <path d="M80.6,98.6 L8.9,57.2 C3.3,53.9 4,48.3 10.5,44.5 L79,4.9 C85.5,1.1 95.4,0.7 101,4 L172.7,45.4 C178.3,48.7 177.6,54.3 171.1,58.1 L102.6,97.7 C96.1,101.4 86.2,101.8 80.6,98.6 Z" id="Path" fill="#362295"></path>
                    <path d="M80.6,97.4 L8.9,56 C3.3,52.7 4,47.1 10.5,43.3 L79,3.7 C85.5,-0.1 95.4,-0.5 101,2.8 L172.7,44.2 C178.3,47.5 177.6,53.1 171.1,56.9 L102.6,96.5 C96.1,100.2 86.2,100.6 80.6,97.4 Z" id="Path" fill="url(#linearGradient-16)"></path>
                </g>
                <g id="Group" transform="translate(43.000000, 7.000000)">
                    <polygon id="Path" fill="#454FE4" points="49.5 3.2 43.5 5.8 24.2 5.8 24.2 15.4 50.1 39.4 66.9 12.8 66.9 3.2"></polygon>
                    <polygon id="Path" fill="#FFBA1E" points="50.1 38 66.9 11.4 66.9 1.8 50.1 1.8"></polygon>
                    <path d="M3.6,26.7 L3.6,26 L0.8,26 L0.8,35.9 L0.8,35.9 C0.8,40.2 2.6,44.6 6.2,48.7 L6.2,23.1 C5.3,24.3 4.4,25.5 3.6,26.7 Z" id="Path" fill="#FFA01E"></path>
                    <path d="M50.1,28.4 L24.2,4.4 C37.3,-0.3 52.4,-1.2 67,1.9 L50.1,28.4 Z" id="Path" fill="#FFD06C"></path>
                    <path d="M44.1,25.9 L24.2,12 C14.3,15.6 7.3,20.8 3.7,26.6 L3.7,25.9 L0.9,25.9 L0.9,35.8 L0.9,35.8 C0.9,40.1 2.7,44.5 6.3,48.6 L50,35.8 L50,25.9 L44.1,25.9 L44.1,25.9 Z" id="Path" fill="#C9C9DC"></path>
                    <polygon id="Path" fill="#D9D9EA" points="6.3 38.7 6.3 48.7 50.1 35.9 50.1 25.9"></polygon>
                    <path d="M99.1,46.1 C99.1,45.7 99.1,45.3 99.1,44.9 L99.1,34.5 L58.5,34.5 L17.7,46.4 L6.4,46.4 L6.4,58.3 L6.4,58.3 L6.4,58.3 C12.2,64.9 21.2,69.5 33.3,72.1 C58.7,77.5 86.9,69.9 96.2,55.2 C98.1,52.3 99,49.3 99.2,46.3 L99.2,46.3 L99.2,46.1 L99.1,46.1 Z" id="Path" fill="#C9C9DC"></path>
                    <path d="M50.1,33.7 L67,7.1 C92.4,12.5 105.5,28.7 96.2,43.4 C86.9,58.1 58.7,65.6 33.3,60.3 C21.2,57.7 12.3,53.2 6.4,46.5 L50.1,33.7 Z" id="Path" fill="url(#linearGradient-17)"></path>
                    <path d="M50.1,25.9 L6.4,38.7 C-5.3,25.4 2.3,9.7 24.2,1.9 L50.1,25.9 Z" id="Path" fill="#FFFFFF"></path>
                </g>
            </g>
            <g id="img3-step9.bc69a7d" transform="translate(755.000000, 309.000000)" fill-rule="nonzero">
                <g id="Group">
                    <path d="M87.3,112.7 L10.7,68.5 C5.1,65.2 5.8,59.6 12.3,55.8 L85.7,13.4 C92.2,9.6 102.1,9.2 107.7,12.5 L184.3,56.7 C189.9,60 189.2,65.6 182.7,69.4 L109.3,111.8 C102.8,115.6 92.9,116 87.3,112.7 Z" id="Path" fill="#E7E8EB"></path>
                    <path d="M179.9,53 L179.9,54.4 C179.4,54 178.9,53.6 178.2,53.2 L101.6,9 C96,5.7 86.1,6.2 79.6,9.9 L6.2,52.3 C5,53 3.9,53.8 3.1,54.6 L3.1,53.2 L1,53.2 L1,59.7 L1,59.7 C1.1,61.7 2.3,63.6 4.8,65 L81.4,109.2 C87,112.5 96.9,112 103.4,108.3 L176.8,65.9 C180.2,63.9 182,61.5 182.2,59.1 L182.2,59.1 L182.2,59.1 C182.2,58.9 182.2,58.6 182.2,58.4 L182.2,53 L179.9,53 Z" id="Path" fill="#C9C9DC"></path>
                    <path d="M81.3,103.4 L4.7,59.2 C-0.9,55.9 -0.2,50.3 6.3,46.5 L79.7,4.1 C86.2,0.3 96.1,-0.1 101.7,3.2 L178.3,47.4 C183.9,50.7 183.2,56.3 176.7,60.1 L103.3,102.5 C96.8,106.2 87,106.6 81.3,103.4 Z" id="Path" fill="url(#linearGradient-18)"></path>
                    <path d="M81.3,99.4 L9.6,58 C4,54.7 4.7,49.1 11.2,45.3 L79.7,5.7 C86.2,1.9 96.1,1.5 101.7,4.8 L173.4,46.2 C179,49.5 178.3,55.1 171.8,58.9 L103.3,98.5 C96.8,102.3 87,102.7 81.3,99.4 Z" id="Path" fill="#211258"></path>
                    <path d="M81.3,98.3 L9.6,56.9 C4,53.6 4.7,48 11.2,44.2 L79.7,4.6 C86.2,0.8 96.1,0.4 101.7,3.7 L173.4,45.1 C179,48.4 178.3,54 171.8,57.8 L103.3,97.4 C96.8,101.1 87,101.5 81.3,98.3 Z" id="Path" fill="#362295"></path>
                    <path d="M81.3,97.1 L9.6,55.7 C4,52.4 4.7,46.8 11.2,43 L79.7,3.4 C86.2,-0.4 96.1,-0.8 101.7,2.5 L173.4,43.9 C179,47.2 178.3,52.8 171.8,56.6 L103.3,96.2 C96.8,99.9 87,100.3 81.3,97.1 Z" id="Path" fill="url(#linearGradient-19)"></path>
                </g>
                <path d="M117.5,57.2 L116.6,57.2 L106.7,28.7 C105.6,26.1 100.1,25.1 96.8,27 L54.4,51.5 C54.3,51.6 54.2,51.6 54.2,51.7 L54.2,51 L52.7,51 L52.7,54.2 L52.7,54.2 C52.9,55.6 54.6,57 57.4,57.3 L110.5,63.6 C114.3,64 117.5,62.4 117.6,60.4 L117.6,60.4 L117.6,57.2 L117.5,57.2 Z" id="Path" fill="#0449C5" opacity="0.3"></path>
                <path d="M57.3,53.7 C52.7,53.2 51,49.9 54.3,48 L96.7,23.5 C100,21.6 105.5,22.6 106.6,25.2 L117.3,55.9 C118.2,58.3 114.6,60.4 110.4,59.9 L57.3,53.7" id="Path" fill="#FFFFFF"></path>
            </g>
            <g id="img3-step10-1.5618d8b" transform="translate(649.000000, 247.000000)" fill-rule="nonzero">
                <path d="M86.7,112.9 L10.1,68.7 C4.5,65.4 5.2,59.8 11.7,56 L85.1,13.6 C91.6,9.8 101.5,9.4 107.1,12.7 L183.7,56.9 C189.3,60.2 188.6,65.8 182.1,69.6 L108.7,112 C102.2,115.7 92.4,116.1 86.7,112.9 Z" id="Path" fill="#E7E8EB"></path>
                <path d="M179.4,53.2 L179.4,54.6 C178.9,54.2 178.4,53.8 177.7,53.4 L101.1,9.2 C95.5,5.9 85.6,6.4 79.1,10.1 L5.7,52.5 C4.5,53.2 3.4,54 2.6,54.8 L2.6,53.4 L0.3,53.4 L0.3,59.9 L0.3,59.9 C0.4,61.9 1.6,63.8 4.1,65.2 L80.7,109.4 C86.3,112.7 96.2,112.2 102.7,108.5 L176.1,66.1 C179.5,64.1 181.3,61.7 181.5,59.3 L181.5,59.3 L181.5,59.3 C181.5,59.1 181.5,58.8 181.5,58.6 L181.5,53.2 L179.4,53.2 L179.4,53.2 Z" id="Path" fill="#C9C9DC"></path>
                <path d="M80.8,103.5 L4.2,59.3 C-1.4,56 -0.7,50.4 5.8,46.6 L79.2,4.2 C85.7,0.4 95.6,2.84217094e-14 101.2,3.3 L177.8,47.5 C183.4,50.8 182.7,56.4 176.2,60.2 L102.8,102.6 C96.3,106.4 86.4,106.8 80.8,103.5 Z" id="Path" fill="url(#linearGradient-20)"></path>
                <path d="M80.8,99.6 L9.1,58.2 C3.5,54.9 4.2,49.3 10.7,45.5 L79.2,5.9 C85.7,2.1 95.6,1.7 101.2,5 L172.9,46.4 C178.5,49.7 177.8,55.3 171.3,59.1 L102.8,98.7 C96.3,102.4 86.4,102.8 80.8,99.6 Z" id="Path" fill="#211258"></path>
                <path d="M80.8,98.4 L9.1,57 C3.5,53.7 4.2,48.1 10.7,44.3 L79.2,4.7 C85.7,0.9 95.6,0.5 101.2,3.8 L172.9,45.2 C178.5,48.5 177.8,54.1 171.3,57.9 L102.8,97.5 C96.3,101.3 86.4,101.7 80.8,98.4 Z" id="Path" fill="#362295"></path>
                <path d="M80.8,97.2 L9.1,55.8 C3.5,52.5 4.2,46.9 10.7,43.1 L79.2,3.5 C85.7,-0.3 95.6,-0.7 101.2,2.6 L172.9,44 C178.5,47.3 177.8,52.9 171.3,56.7 L102.8,96.3 C96.3,100.1 86.4,100.5 80.8,97.2 Z" id="Path" fill="url(#linearGradient-21)"></path>
            </g>
            <g id="img3-step10-4.9e6279e" transform="translate(662.000000, 232.000000)" fill-rule="nonzero">
                <path d="M68.8,87.9 L4.3,50.6 C-0.8,47.7 -0.1,42.6 5.7,39.2 L67.4,3.6 C73.3,0.2 82.1,-0.1 87.2,2.8 L151.7,40.1 C156.8,43 156.1,48.1 150.3,51.5 L88.6,87 C82.7,90.4 73.9,90.8 68.8,87.9 Z" id="Path" fill="#00D4CA" opacity="0.4"></path>
                <path d="M106.1,59 L102.4,55.3 C103.4,53.9 103.8,53.2 105,51.8 L112.2,50.7 C113.2,50.5 113.9,50 113.8,49.4 L113.8,45.5 C113.8,44.9 113.1,44.4 112.2,44.2 L105,43.1 C104,41.7 103.6,41 102.4,39.6 L106.1,35.9 C106.6,35.4 106.4,34.7 105.7,34.3 L100.9,31.5 C100.2,31.1 99,31 98.2,31.3 L91.8,33.4 C89.3,32.8 88.2,32.6 85.7,31.9 L83.7,27.8 C83.4,27.2 82.5,26.8 81.5,26.8 L74.7,26.8 C73.6,26.8 72.7,27.2 72.5,27.8 L70.5,31.9 C68,32.5 66.9,32.7 64.4,33.4 L58,31.3 C57.1,31 56,31.1 55.3,31.5 L50.5,34.3 C49.8,34.7 49.6,35.4 50.1,35.9 L53.8,39.6 C52.8,41 52.4,41.7 51.2,43.1 L44,44.2 C43,44.4 42.3,44.9 42.4,45.5 L42.4,49.4 C42.4,50 43.1,50.5 44,50.7 L51.2,51.8 C52.2,53.2 52.6,53.9 53.8,55.3 L50.1,59 C49.6,59.5 49.8,60.2 50.5,60.6 L55.3,63.4 C56,63.8 57.2,63.9 58,63.6 L64.4,61.5 C66.9,62.1 68,62.3 70.5,63 L72.5,67.1 C72.8,67.7 73.7,68.1 74.7,68.1 L81.5,68.1 C82.6,68.1 83.5,67.7 83.7,67.1 L85.7,63 C88.2,62.4 89.3,62.2 91.8,61.5 L98.2,63.6 C99.1,63.9 100.2,63.8 100.9,63.4 L105.7,60.6 C106.5,60.2 106.6,59.5 106.1,59 Z M70.5,51.8 C66.3,49.4 66.3,45.4 70.5,43 C74.7,40.6 81.5,40.6 85.7,43 C89.9,45.4 89.9,49.4 85.7,51.8 C81.5,54.2 74.7,54.2 70.5,51.8 Z" id="Shape" fill="#FFFFFF"></path>
            </g>
        </g>
    </g>
</svg>